<svg width="48" height="73" viewBox="0 0 48 73" fill="none" xmlns="http://www.w3.org/2000/svg">
<g clip-path="url(#clip0_5952_22963)">
<path d="M22.5797 0.0256775C22.5303 0.0314933 22.2802 0.0547563 22.0243 0.0809273C21.7684 0.107098 21.3759 0.156532 21.1519 0.194335C20.928 0.232137 20.6053 0.290295 20.4395 0.32519C20.2709 0.360084 20.0004 0.418242 19.8405 0.458952C19.6806 0.499663 19.3927 0.578175 19.2008 0.633425C19.0088 0.691583 18.7413 0.773004 18.6046 0.81953C18.468 0.863148 18.2063 0.9562 18.0231 1.02308C17.837 1.09287 17.5113 1.22373 17.2932 1.31387C17.078 1.40692 16.7174 1.57267 16.4935 1.68026C16.2696 1.78785 15.909 1.97396 15.6938 2.09318C15.4758 2.21241 15.1559 2.3956 14.9785 2.50029C14.804 2.60497 14.4842 2.80852 14.2748 2.9481C14.0625 3.08768 13.7659 3.29123 13.6176 3.39882C13.4693 3.50351 13.1785 3.7216 12.9692 3.88444C12.7627 4.04437 12.3614 4.37296 12.0823 4.61141C11.8031 4.85276 11.2186 5.40235 10.7853 5.83563C10.3521 6.266 9.81992 6.82431 9.60474 7.07148C9.38665 7.31865 9.02026 7.75774 8.78762 8.04562C8.5579 8.3335 8.23513 8.74642 8.07519 8.9616C7.91526 9.17679 7.67972 9.50538 7.55177 9.68857C7.42092 9.87177 7.1941 10.2062 7.0458 10.4301C6.8975 10.654 6.63579 11.0669 6.46423 11.3461C6.29266 11.6252 6.05131 12.0265 5.93208 12.233C5.81286 12.4423 5.60058 12.8175 5.46391 13.0704C5.32434 13.3205 5.06844 13.812 4.89397 14.1609C4.7195 14.5069 4.47814 15.0071 4.3531 15.2717C4.22806 15.5363 4.01288 16.019 3.8733 16.3476C3.73372 16.6762 3.54471 17.1328 3.45166 17.3654C3.35861 17.598 3.18704 18.0429 3.07073 18.3541C2.95441 18.6652 2.75958 19.2148 2.64036 19.5754C2.51823 19.936 2.35248 20.4448 2.27106 20.7095C2.18964 20.9741 2.07623 21.3405 2.02389 21.5237C1.96864 21.7069 1.84651 22.1518 1.75345 22.5123C1.65749 22.8729 1.54409 23.312 1.50047 23.4865C1.45976 23.6639 1.40451 23.879 1.38124 23.9663C1.36089 24.0535 1.32309 24.2193 1.29982 24.3298C1.27365 24.4432 1.22422 24.6845 1.18351 24.8677C1.1428 25.0509 1.07882 25.365 1.03811 25.5656C0.997404 25.7663 0.930523 26.1065 0.89272 26.3217C0.85201 26.5369 0.790944 26.8713 0.758958 27.0632C0.726971 27.2551 0.674629 27.575 0.642642 27.7756C0.610656 27.9763 0.558314 28.3281 0.526327 28.5607C0.49434 28.7934 0.441998 29.1918 0.410012 29.4476C0.378025 29.7035 0.325683 30.1601 0.290788 30.4654C0.258802 30.7707 0.20646 31.3261 0.174473 31.7013C0.142486 32.0764 0.0901444 32.9022 0.0581577 33.5332C0.0145394 34.4056 0 35.086 0 36.3539C0 37.6217 0.0145394 38.3021 0.0581577 39.1745C0.0901444 39.8055 0.142486 40.6314 0.174473 41.0065C0.20646 41.3816 0.258802 41.9399 0.290788 42.2423C0.325683 42.5477 0.378025 43.0042 0.410012 43.2601C0.441998 43.516 0.50888 44.0016 0.555406 44.336C0.601932 44.6733 0.654274 45.0194 0.668813 45.1066C0.683353 45.1938 0.724063 45.4294 0.75605 45.63C0.790944 45.8307 0.85201 46.1709 0.89272 46.3861C0.933431 46.6012 0.997404 46.9357 1.03521 47.1276C1.07592 47.3195 1.13698 47.6277 1.17769 47.8109C1.2155 47.9941 1.26784 48.2384 1.29401 48.3489C1.31727 48.4594 1.38997 48.7676 1.45394 49.0322C1.52082 49.2969 1.63132 49.7418 1.70402 50.0209C1.77672 50.3001 1.85523 50.588 1.87559 50.6607C1.89594 50.7334 1.94247 50.8904 1.97445 51.0096C2.00935 51.1288 2.12276 51.5098 2.23035 51.8529C2.33503 52.196 2.50369 52.7282 2.60546 53.0306C2.70724 53.3359 2.84973 53.7459 2.92242 53.9466C2.99512 54.1472 3.08817 54.4031 3.13179 54.5136C3.1725 54.627 3.30336 54.9585 3.41967 55.2551C3.53889 55.5517 3.75117 56.0693 3.89656 56.4037C4.03905 56.741 4.22806 57.1656 4.31239 57.3488C4.39672 57.532 4.64098 58.0292 4.85326 58.4538C5.06553 58.8783 5.3127 59.361 5.40285 59.5297C5.49299 59.6984 5.69945 60.0647 5.85939 60.3439C6.01932 60.6231 6.27521 61.0563 6.42933 61.3035C6.58054 61.5507 6.83062 61.9432 6.98183 62.1759C7.13304 62.4085 7.39475 62.7953 7.56341 63.0337C7.73206 63.2751 8.03448 63.6851 8.23513 63.9497C8.43577 64.2143 8.73528 64.5981 8.90685 64.8075C9.07551 65.0169 9.39828 65.3949 9.62219 65.6508C9.84609 65.9067 10.3492 66.4388 10.7417 66.8314C11.1343 67.224 11.5821 67.6543 11.7333 67.7881C11.8845 67.9219 12.0561 68.0702 12.1113 68.1196C12.1666 68.1719 12.3847 68.3493 12.5911 68.518C12.8005 68.6866 13.1465 68.9571 13.3646 69.117C13.5798 69.2769 13.8822 69.4921 14.0334 69.5968C14.1847 69.7015 14.5191 69.9167 14.775 70.0766C15.0309 70.2336 15.3972 70.4517 15.5921 70.5564C15.784 70.6611 16.13 70.8414 16.3627 70.9577C16.5953 71.074 17.0082 71.263 17.2786 71.3793C17.552 71.4956 17.8544 71.6207 17.9504 71.6556C18.0463 71.6905 18.2731 71.769 18.4592 71.833C18.6424 71.8969 18.9914 72.0045 19.2298 72.0772C19.4712 72.147 19.7852 72.2313 19.9277 72.2662C20.0731 72.2982 20.3494 72.3593 20.5413 72.3971C20.7332 72.4378 21.0589 72.4959 21.2683 72.5279C21.4776 72.5599 21.8295 72.6064 22.0534 72.6326C22.318 72.6646 22.824 72.685 23.4812 72.6937C24.3623 72.7053 24.5862 72.6995 25.127 72.6472C25.4702 72.6152 25.9616 72.5541 26.2175 72.5105C26.4734 72.4698 26.8078 72.4087 26.959 72.3796C27.1131 72.3476 27.3603 72.2895 27.5144 72.2517C27.6656 72.2139 27.8953 72.1557 28.0233 72.1208C28.1512 72.0859 28.4856 71.9813 28.7648 71.8911C29.0469 71.7981 29.4656 71.6469 29.6982 71.5538C29.9279 71.4607 30.3031 71.3037 30.527 71.199C30.7509 71.0973 31.1493 70.8995 31.4139 70.7629C31.6785 70.6262 32.0914 70.3965 32.3328 70.2511C32.5712 70.1086 32.926 69.8847 33.1179 69.7567C33.3098 69.6288 33.6122 69.4223 33.7867 69.2973C33.9641 69.1722 34.3188 68.9018 34.5747 68.6983C34.8335 68.4947 35.1854 68.201 35.3628 68.0498C35.5372 67.8986 35.7524 67.7096 35.8397 67.6311C35.9269 67.5496 36.2962 67.1891 36.6539 66.8285C37.0145 66.4679 37.4884 65.9707 37.7094 65.7235C37.9275 65.4763 38.2474 65.1041 38.4161 64.8947C38.5876 64.6883 38.8464 64.3597 38.9947 64.1678C39.143 63.9759 39.4047 63.624 39.5821 63.3826C39.7566 63.1442 40.1113 62.6266 40.3702 62.234C40.626 61.8415 41.007 61.2395 41.2105 60.8964C41.417 60.5533 41.7194 60.0211 41.8881 59.7187C42.0538 59.4163 42.3766 58.7882 42.6063 58.3229C42.836 57.8606 43.153 57.1918 43.31 56.8399C43.4641 56.4881 43.6386 56.0897 43.6939 55.953C43.7491 55.8163 43.8393 55.5953 43.8945 55.4587C43.9498 55.322 44.0864 54.976 44.194 54.6881C44.3045 54.4002 44.4674 53.9611 44.5546 53.7139C44.6418 53.4668 44.7989 53.0015 44.9064 52.6816C45.0111 52.3618 45.1536 51.9052 45.2263 51.6639C45.299 51.4254 45.4066 51.059 45.4648 50.8497C45.5229 50.6403 45.5811 50.4338 45.5956 50.3844C45.6073 50.3379 45.7032 49.9628 45.805 49.5557C45.9097 49.1486 46.0434 48.599 46.1016 48.3343C46.1597 48.0697 46.2208 47.7964 46.2383 47.7237C46.2528 47.651 46.3313 47.273 46.4069 46.8804C46.4854 46.4878 46.5552 46.1098 46.5669 46.0371C46.5785 45.9644 46.6105 45.7696 46.6425 45.6009C46.6715 45.4323 46.721 45.127 46.753 44.9176C46.7879 44.7111 46.8402 44.3505 46.8722 44.1179C46.9042 43.8853 46.9565 43.4869 46.9885 43.231C47.0205 42.9751 47.0757 42.5186 47.1077 42.2133C47.1397 41.9079 47.192 41.3467 47.224 40.9629C47.256 40.579 47.3055 39.8666 47.3316 39.3781C47.3723 38.6802 47.384 38.0346 47.384 36.3539C47.384 34.6557 47.3723 34.0305 47.3316 33.3151C47.3025 32.8208 47.2473 32.0357 47.2066 31.5704C47.1688 31.1051 47.1164 30.5497 47.0903 30.3345C47.067 30.1194 47.0205 29.7326 46.9885 29.4767C46.9594 29.2208 46.9042 28.8166 46.8722 28.5753C46.8373 28.3368 46.7471 27.7523 46.6686 27.2813C46.5901 26.8102 46.468 26.1297 46.3953 25.7692C46.3255 25.4086 46.2383 24.9899 46.2063 24.8386C46.1772 24.6874 46.0958 24.3327 46.0318 24.0535C45.9649 23.7744 45.8399 23.2626 45.7497 22.9194C45.6625 22.5763 45.52 22.0471 45.4328 21.7418C45.3455 21.4364 45.2031 20.9595 45.1158 20.6804C45.0286 20.4012 44.889 19.9679 44.8076 19.7208C44.7233 19.4736 44.5546 18.988 44.4296 18.6449C44.3045 18.3017 44.1882 17.9877 44.1708 17.947C44.1533 17.9063 44.0544 17.6591 43.9498 17.3945C43.8451 17.1298 43.7229 16.8245 43.6764 16.7111C43.6299 16.5977 43.4641 16.2197 43.31 15.8678C43.153 15.516 42.8389 14.8501 42.6092 14.3848C42.3795 13.9225 42.0596 13.3002 41.8968 13.0036C41.731 12.707 41.5449 12.3755 41.481 12.2621C41.417 12.1516 41.2629 11.8957 41.1436 11.695C41.0244 11.4944 40.8267 11.1745 40.7046 10.9826C40.5853 10.7907 40.3614 10.4504 40.2102 10.2265C40.059 10.0026 39.7711 9.58971 39.5705 9.31055C39.3669 9.03139 39.0616 8.61847 38.8842 8.39457C38.7097 8.17066 38.4131 7.80427 38.227 7.58036C38.038 7.35645 37.6775 6.94353 37.4216 6.66438C37.1657 6.38522 36.7208 5.92577 36.4329 5.64662C36.1479 5.36746 35.7612 5.00688 35.578 4.84404C35.3948 4.68411 35.1069 4.43694 34.9382 4.29445C34.7696 4.15487 34.3974 3.86408 34.1066 3.64599C33.8187 3.43081 33.3941 3.12839 33.1615 2.97427C32.9289 2.82306 32.5218 2.56717 32.2601 2.41014C31.9954 2.25602 31.4982 1.98559 31.1522 1.81112C30.809 1.63664 30.4339 1.45636 30.3234 1.40983C30.21 1.3604 29.9687 1.25862 29.7855 1.18302C29.5993 1.10741 29.1603 0.947477 28.8084 0.831161C28.4566 0.714846 27.9651 0.566544 27.7179 0.50257C27.4679 0.438597 27.1276 0.360084 26.959 0.32519C26.7932 0.293203 26.4647 0.232137 26.232 0.194335C25.9994 0.156532 25.5429 0.0983746 25.2143 0.06348C24.7286 0.0169539 24.4349 0.00532232 23.6411 0.00823021C23.1031 0.0111381 22.6262 0.0198617 22.5797 0.0256775Z" fill="#DEDEE2"/>
<path d="M23.1471 1.70749C23.0744 1.7133 22.8185 1.73366 22.58 1.7482C22.3387 1.76564 21.9199 1.81217 21.6466 1.85288C21.3762 1.89359 21.0272 1.95175 20.876 1.98374C20.7219 2.01572 20.3962 2.09133 20.149 2.15239C19.8989 2.21637 19.4599 2.34431 19.172 2.44027C18.8841 2.53623 18.4712 2.68744 18.256 2.77468C18.0379 2.86192 17.686 3.01603 17.468 3.1149C17.2528 3.21668 16.898 3.39115 16.6828 3.50747C16.4676 3.62378 16.1391 3.80698 15.9559 3.91457C15.7698 4.02507 15.4237 4.24316 15.1824 4.40309C14.9439 4.56303 14.5426 4.84509 14.2955 5.0312C14.0483 5.21439 13.6877 5.49937 13.4958 5.6593C13.3039 5.81633 13.0276 6.05186 12.8822 6.18272C12.7397 6.31067 12.4141 6.6189 12.1582 6.86607C11.9052 7.11324 11.5388 7.48836 11.344 7.69482C11.1491 7.90419 10.8409 8.25023 10.6548 8.46541C10.4687 8.68059 10.2128 8.98883 10.0848 9.14876C9.95689 9.30869 9.71263 9.62275 9.54397 9.84665C9.37822 10.0706 9.09616 10.4573 8.92169 10.7045C8.74721 10.9516 8.46515 11.3704 8.29649 11.635C8.12493 11.8996 7.86612 12.3184 7.71782 12.5655C7.56952 12.8127 7.31944 13.246 7.16242 13.5251C7.0083 13.8043 6.76113 14.2637 6.61573 14.5429C6.47034 14.822 6.23189 15.3077 6.0865 15.6188C5.9382 15.9299 5.8277 16.2033 5.83642 16.2236C5.84514 16.2411 5.98472 16.4563 6.14466 16.6947L6.43544 17.1309V57.8122C6.89198 58.6787 7.11589 59.0946 7.2293 59.2952C7.3398 59.4959 7.57824 59.9001 7.75562 60.1967C7.933 60.4933 8.28195 61.0428 8.53203 61.418C8.78501 61.7931 9.14268 62.3107 9.3317 62.5666C9.52071 62.8225 9.82022 63.215 9.9976 63.4389C10.175 63.6599 10.4512 63.9944 10.6083 64.1805C10.7653 64.3637 11.0619 64.6981 11.2683 64.922C11.4748 65.1459 11.8005 65.4861 11.9924 65.678L12.3443 66.027C12.3443 32.5049 12.3559 22.7722 12.3675 22.7722C12.3792 22.7722 12.5711 22.8798 12.795 23.0135C13.0189 23.1502 13.4202 23.3741 13.6848 23.5137C13.9494 23.6533 14.3565 23.8568 14.595 23.9673C14.8305 24.0778 15.2114 24.2465 15.4383 24.3395C15.6651 24.4355 16.0111 24.5722 16.203 24.642C16.3949 24.7118 16.7555 24.8368 17.0027 24.9182C17.2528 24.9996 17.6453 25.1159 17.878 25.1828C18.1077 25.2468 18.3549 25.3137 18.4217 25.3282L18.5468 25.3602V70.0544C19.3697 70.3219 19.7536 70.4411 19.928 70.4877C20.1054 70.5371 20.4253 70.6156 20.6434 70.6621C20.8585 70.7116 21.1988 70.7755 21.3994 70.8104C21.6001 70.8424 21.9286 70.886 22.1264 70.9093C22.327 70.9326 22.7807 70.9645 23.1325 70.982C23.4844 70.9994 23.9264 71.0023 24.1154 70.9907L24.4556 70.9704V46.3842H30.7744V69.1529C31.1699 68.9436 31.4927 68.7516 31.7486 68.5917L32.2167 68.3038L32.2022 44.9303H24.4556V39.4925H32.2022C32.1993 25.6859 32.2051 24.2639 32.2371 24.2378C32.2575 24.2203 32.3592 24.1709 32.4639 24.1244C32.5657 24.0807 32.9146 23.9121 33.2345 23.7522C33.5544 23.5951 34.0138 23.3509 34.2523 23.2142C34.4936 23.0804 34.8484 22.8682 35.0403 22.746C35.2322 22.6268 35.5608 22.4087 35.7673 22.2662C35.9766 22.1237 36.3227 21.8737 36.5379 21.7079C36.756 21.5451 37.0962 21.2746 37.2968 21.106L37.6603 20.8036L37.6748 39.4925C45.5785 39.478 45.6017 39.478 45.6105 39.4198C45.6163 39.3878 45.6279 39.0941 45.6366 38.7656C45.6483 38.437 45.6599 38.1404 45.6686 38.1055L45.6802 38.0386H39.1317V19.3845C39.4981 18.9774 39.7423 18.6982 39.911 18.4976C40.0768 18.297 40.3821 17.9131 40.5856 17.6398C40.7892 17.3693 41.0742 16.9681 41.2166 16.7529C41.362 16.5377 41.5016 16.3225 41.5307 16.2731L41.5859 16.1858C40.7485 14.4964 40.3821 13.7897 40.2367 13.5251C40.0884 13.2605 39.8296 12.8156 39.6609 12.5364C39.4952 12.2573 39.1433 11.7077 38.8845 11.3151C38.6228 10.9226 38.2564 10.3933 38.0674 10.1374C37.8813 9.88155 37.5731 9.48317 37.3899 9.25054C37.2038 9.01791 36.9391 8.69804 36.8025 8.53811C36.6658 8.37817 36.4361 8.11646 36.2936 7.95653C36.1482 7.7966 35.8283 7.45928 35.5783 7.20339C35.3311 6.9504 34.9443 6.57819 34.7204 6.37464C34.4965 6.16818 34.1359 5.85413 33.9179 5.67675C33.7027 5.49646 33.3566 5.22021 33.1473 5.06318C32.9379 4.90616 32.586 4.65317 32.3621 4.50196C32.1382 4.35075 31.7428 4.10068 31.4869 3.94656C31.231 3.79244 30.7657 3.53655 30.4546 3.37952C30.1405 3.22249 29.7305 3.02476 29.5357 2.94043C29.3438 2.8561 28.9977 2.71652 28.7651 2.62929C28.5325 2.54205 28.1719 2.41992 27.9654 2.35594C27.756 2.29197 27.3838 2.18729 27.1338 2.12622C26.8866 2.06516 26.5464 1.98664 26.3777 1.95466C26.2091 1.92267 25.8746 1.87033 25.6362 1.83834C25.3948 1.80635 25.0343 1.76564 24.8336 1.7482C24.6359 1.73075 24.2026 1.7133 23.874 1.70749C23.5454 1.70167 23.2197 1.70167 23.1471 1.70749Z" fill="#1B2838"/>
<path d="M24.2444 3.30005C24.2415 3.30586 24.0671 3.31749 23.8577 3.32622C23.6483 3.33785 23.4128 3.35239 23.3343 3.3582C23.2528 3.36402 23.1162 3.37565 23.0289 3.38437C22.9388 3.3931 22.7963 3.40764 22.7091 3.41927C22.6189 3.42799 22.5172 3.43672 22.4823 3.43381C22.4474 3.43381 22.4067 3.45126 22.395 3.47743C22.3834 3.5036 22.3863 3.53268 22.4008 3.5414C22.4183 3.55303 22.4561 3.59956 22.4852 3.64899C22.5142 3.69843 22.5637 3.79439 22.5957 3.86708C22.6277 3.93978 22.6713 4.03574 22.6945 4.08517C22.7149 4.13461 22.7411 4.2073 22.7498 4.25383C22.7585 4.29745 22.776 4.36724 22.7876 4.41376C22.7992 4.45738 22.8109 7.0832 22.8109 10.2499C22.8079 13.4166 22.7992 16.0395 22.7876 16.0802C22.7789 16.1209 22.7091 16.275 22.6364 16.4233C22.5637 16.5687 22.5055 16.6996 22.5055 16.7141C22.5055 16.7257 22.4794 16.7665 22.4445 16.8072C22.4125 16.8479 22.3863 16.8973 22.3863 16.9177C22.3863 16.9351 22.3747 16.9526 22.3572 16.9526C22.3427 16.9526 22.3281 16.9787 22.3281 17.0107C22.3281 17.0689 22.3485 17.0689 23.9304 17.0689C24.9801 17.0689 25.5326 17.0602 25.5326 17.0398C25.5326 17.0253 25.4861 16.9409 25.4309 16.8595C25.3756 16.7752 25.3291 16.6938 25.3291 16.6763C25.3291 16.6618 25.3029 16.5833 25.2709 16.5018C25.2418 16.4233 25.2069 16.3303 25.1953 16.2983C25.1837 16.2663 25.1691 16.2256 25.1662 16.211C25.1633 16.1965 25.1488 16.1442 25.1372 16.0947C25.1226 16.0482 25.1081 14.9519 25.1052 13.6608L25.0964 11.3113C26.5417 11.3171 26.6434 11.3229 26.7976 11.3752C26.8935 11.4072 26.9778 11.445 26.9808 11.4596C26.9837 11.4741 27.004 11.4857 27.0244 11.4857C27.0447 11.4857 27.1232 11.5526 27.1988 11.6311C27.2745 11.7126 27.3413 11.7765 27.3442 11.7765C27.3472 11.7765 27.353 11.1542 27.353 10.3953C27.353 9.49384 27.3413 9.01404 27.3239 9.01404C27.3064 9.01404 27.2337 9.04893 27.161 9.08964C27.0913 9.13035 27.0127 9.16815 26.9866 9.17397C26.9633 9.17688 26.8993 9.20305 26.8412 9.22922C26.7859 9.25539 26.7074 9.28447 26.6667 9.2961C26.626 9.30773 26.2509 9.31646 25.8292 9.31646L25.0645 9.31936C25.0703 6.48127 25.0732 5.62926 25.0761 5.60018C25.079 5.56819 25.1197 5.49841 25.1691 5.44606C25.2477 5.35592 25.268 5.3501 25.4163 5.35592C25.5036 5.35883 25.6577 5.39081 25.7565 5.42862C25.8583 5.46642 25.9397 5.48677 25.9397 5.47223C25.9368 5.4606 25.9543 5.46642 25.9746 5.48387C25.995 5.50422 26.056 5.52458 26.1084 5.53621C26.1578 5.54493 26.2044 5.55075 26.2102 5.54784C26.2131 5.54493 26.2422 5.55947 26.2741 5.57692C26.3061 5.59437 26.3643 5.61472 26.405 5.62054C26.4457 5.62926 26.6493 5.69323 26.8557 5.76593C27.0651 5.83572 27.2745 5.91132 27.3239 5.93168C27.3704 5.95204 27.4693 5.98984 27.542 6.01601C27.6118 6.04509 27.8008 6.12942 27.9549 6.21084C28.1119 6.28935 28.266 6.36495 28.298 6.3824C28.33 6.39985 28.3562 6.4202 28.3562 6.43474C28.3562 6.44638 28.3678 6.4551 28.3853 6.4551C28.3998 6.4551 28.4347 6.47255 28.458 6.4929C28.4841 6.51035 28.519 6.54234 28.5394 6.55687C28.5597 6.57432 28.615 6.61794 28.6615 6.65283C28.7109 6.69064 28.7604 6.71972 28.772 6.71681C28.7836 6.71681 28.7924 6.21084 28.7924 5.59146L28.7953 4.4632C28.6906 4.41376 28.6237 4.38178 28.5743 4.36142C28.5278 4.34107 28.4638 4.3149 28.4347 4.30036C28.4085 4.28582 28.3707 4.27419 28.3562 4.27419C28.3387 4.27419 28.2806 4.25383 28.2253 4.23057C28.1701 4.2073 28.077 4.16659 28.0218 4.14333C27.9665 4.12007 27.9055 4.09971 27.8909 4.09971C27.8735 4.09971 27.8182 4.08227 27.7659 4.059C27.7135 4.03574 27.4286 3.93687 27.132 3.838C26.8383 3.73914 26.562 3.6519 26.5213 3.64318C26.4806 3.63736 26.4254 3.617 26.3992 3.60247C26.3701 3.58793 26.3468 3.58211 26.3468 3.59083C26.3468 3.59956 26.3236 3.59374 26.2974 3.5792C26.2683 3.56466 26.2131 3.54431 26.1724 3.53558C26.1317 3.52686 26.0706 3.51523 26.0328 3.5065C25.9979 3.49487 25.9397 3.48033 25.9019 3.47161C25.867 3.46289 25.8234 3.45416 25.8089 3.44835C25.7914 3.44544 25.7536 3.43381 25.7216 3.42218C25.6897 3.41345 25.6111 3.39601 25.5472 3.38728C25.4832 3.37565 25.396 3.36111 25.3582 3.35529C25.3174 3.34657 25.2389 3.33494 25.1837 3.32912C25.1255 3.3204 24.8958 3.30877 24.669 3.30295C24.4422 3.29714 24.2503 3.29423 24.2444 3.30005ZM17.6086 4.78307C17.6028 4.78888 17.5389 4.80342 17.4662 4.81214C17.3964 4.82378 17.3295 4.83541 17.3208 4.84122C17.315 4.84704 17.2742 4.86158 17.2335 4.86739C17.1957 4.87612 17.1347 4.89647 17.1027 4.91101C17.0707 4.92846 16.934 4.99243 16.7973 5.05931C16.6607 5.12329 16.524 5.19308 16.492 5.21343C16.46 5.23088 16.428 5.25414 16.4193 5.26287C16.4106 5.27159 16.367 5.29776 16.3205 5.32102C16.2768 5.34429 16.2129 5.38791 16.1838 5.41698C16.1518 5.44316 16.114 5.46642 16.0995 5.46642C16.082 5.46642 16.0704 5.47805 16.0704 5.4955C16.0704 5.51294 16.0529 5.52458 16.0326 5.52458C16.0122 5.52458 15.957 5.56238 15.9046 5.606C15.8552 5.64962 15.7854 5.70487 15.7505 5.72813C15.7156 5.75139 15.6633 5.7921 15.6342 5.81536C15.6051 5.83863 15.5499 5.87934 15.515 5.9026C15.4801 5.92586 15.419 5.97239 15.3841 6.00438C15.3463 6.03636 15.2823 6.08871 15.2416 6.12069C15.198 6.15268 15.134 6.20502 15.0962 6.23701C15.0584 6.26899 14.9857 6.32715 14.9334 6.36786C14.8811 6.40857 14.7996 6.47255 14.7589 6.51326C14.7153 6.55397 14.631 6.62666 14.5699 6.67319C14.5088 6.72262 14.4071 6.80695 14.3431 6.8622C14.2791 6.91745 14.1686 7.01632 14.0959 7.08029C14.0232 7.14427 13.9273 7.2286 13.8836 7.26931C13.84 7.31002 13.6946 7.44087 13.5638 7.56009C13.43 7.67932 13.241 7.85961 13.1392 7.96138L12.9531 8.14167C13.1247 8.16784 13.2003 8.19401 13.2323 8.21437C13.2643 8.23763 13.3282 8.32196 13.3748 8.4092C13.4242 8.49353 13.4649 8.57785 13.4678 8.59239C13.4707 8.60984 13.4882 8.68835 13.5056 8.76687C13.5231 8.86283 13.5347 10.1074 13.5347 12.3581C13.5347 15.0886 13.526 15.8359 13.4969 15.9639C13.4765 16.0511 13.4562 16.1296 13.4562 16.1384C13.4562 16.1471 13.4416 16.2052 13.4242 16.2692C13.4068 16.3332 13.3922 16.3942 13.3922 16.4088C13.3922 16.4204 13.3457 16.5077 13.2904 16.6036C13.2323 16.6996 13.1887 16.7839 13.1887 16.7926C13.1887 16.8013 13.1538 16.8421 13.116 16.8886C13.0753 16.9322 13.0404 16.9904 13.0404 17.0194C13.0404 17.0602 13.0753 17.0718 13.209 17.0834C13.3021 17.0921 14.5554 17.1009 15.9977 17.1038C17.4371 17.1038 18.6468 17.098 18.6817 17.0863C18.7195 17.0776 18.7747 17.0631 18.8067 17.0543C18.8387 17.0456 18.8939 17.034 18.9288 17.0253C18.9666 17.0165 19.0422 16.9962 19.0975 16.9758C19.1527 16.9584 19.2312 16.9264 19.272 16.9031C19.3127 16.8828 19.3592 16.8653 19.3737 16.8653C19.3912 16.8653 19.5337 16.7984 19.6936 16.717C19.8535 16.6385 20.0251 16.5455 20.0716 16.5135C20.1211 16.4844 20.1792 16.4495 20.2054 16.4379C20.2286 16.4262 20.2635 16.403 20.2839 16.3884C20.3013 16.371 20.3391 16.339 20.3624 16.3215C20.3886 16.3012 20.4177 16.2837 20.4293 16.2837C20.4409 16.2837 20.4729 16.2605 20.502 16.2343C20.5282 16.2052 20.6009 16.1442 20.6619 16.0947C20.723 16.0482 20.8248 15.9552 20.8887 15.8912C20.9527 15.8272 21.0632 15.7051 21.1359 15.6178C21.2086 15.5335 21.2958 15.4172 21.3336 15.3649C21.3685 15.3096 21.3976 15.2514 21.3976 15.2369C21.3976 15.2224 21.4063 15.2049 21.4209 15.202C21.4325 15.1962 21.4936 15.0886 21.5576 14.9607C21.6215 14.8327 21.6739 14.7222 21.6768 14.7135C21.6768 14.7048 21.6884 14.6786 21.6971 14.6553C21.7059 14.6321 21.7291 14.5594 21.7495 14.4954C21.7698 14.4314 21.7902 14.3675 21.796 14.35C21.7989 14.3355 21.8105 14.2918 21.8193 14.257C21.828 14.2191 21.8425 14.161 21.8513 14.1261C21.86 14.0883 21.8745 14.0011 21.8861 13.9284C21.8978 13.8557 21.9065 13.6027 21.9065 13.3613C21.9065 13.1229 21.8978 12.867 21.8861 12.7943C21.8745 12.7216 21.86 12.6314 21.8513 12.5907C21.8425 12.55 21.828 12.486 21.8193 12.4453C21.8105 12.4046 21.7989 12.361 21.796 12.3436C21.7902 12.329 21.764 12.2418 21.7349 12.1546C21.7088 12.0673 21.6797 11.9772 21.671 11.9597C21.6651 11.9394 21.6593 11.9161 21.6593 11.9074C21.6593 11.8987 21.6157 11.8114 21.5663 11.7155C21.5139 11.6166 21.4587 11.5119 21.4412 11.4828C21.4267 11.4508 21.4034 11.4276 21.3918 11.4276C21.3773 11.4276 21.3685 11.4159 21.3685 11.3985C21.3685 11.384 21.3569 11.352 21.3395 11.3345C21.3249 11.3142 21.258 11.2328 21.1941 11.1513C21.1301 11.0728 20.9818 10.9245 20.8655 10.8256C20.7492 10.7239 20.6387 10.6425 20.6183 10.6425C20.598 10.6425 20.5834 10.6279 20.5834 10.6134C20.5834 10.5988 20.5485 10.5785 20.5107 10.5698C20.47 10.561 20.438 10.5465 20.438 10.5349C20.438 10.5203 20.3682 10.4796 20.2839 10.4418C20.1996 10.404 20.1036 10.3633 20.0716 10.3517C20.0396 10.3371 19.9582 10.308 19.8913 10.2819C19.8215 10.2557 19.7692 10.2441 19.7692 10.2557C19.7692 10.2702 19.7489 10.2586 19.7227 10.2353C19.6791 10.1946 19.6791 10.1888 19.7227 10.1714C19.7459 10.1568 19.7663 10.1278 19.7663 10.1045C19.7663 10.0812 19.7779 10.058 19.7925 10.0551C19.807 10.0492 19.8768 9.95619 19.9495 9.84278C20.0193 9.72938 20.1385 9.5171 20.2141 9.37171C20.2897 9.2234 20.3421 9.10127 20.3362 9.10127C20.3275 9.10127 20.3392 9.06929 20.3653 9.02858C20.3886 8.98787 20.3973 8.95588 20.3857 8.95588C20.374 8.95879 20.3799 8.94134 20.3973 8.92098C20.4148 8.90063 20.4555 8.79885 20.4904 8.69417C20.5253 8.58949 20.5572 8.47317 20.566 8.43246C20.5718 8.39175 20.5863 8.32778 20.598 8.28707C20.6067 8.24636 20.6212 8.1882 20.627 8.15621C20.6328 8.12422 20.6503 8.02536 20.6648 7.93812C20.6823 7.85088 20.691 7.57463 20.6852 7.32746C20.6794 7.08029 20.6677 6.82731 20.659 6.76915C20.6474 6.70809 20.6125 6.57723 20.5805 6.47836C20.5485 6.37659 20.4758 6.20502 20.4206 6.09161C20.3653 5.98111 20.2897 5.85026 20.2548 5.80664C20.2199 5.76011 20.092 5.62635 19.9698 5.50713C19.8506 5.38791 19.743 5.29195 19.7314 5.29195C19.7198 5.29195 19.6907 5.2745 19.6703 5.25414C19.65 5.2367 19.6093 5.2018 19.5773 5.18145C19.5453 5.164 19.4203 5.10003 19.301 5.04187C19.1818 4.98371 19.019 4.91683 18.9375 4.89066C18.8561 4.86739 18.766 4.84413 18.734 4.83832C18.702 4.8325 18.6351 4.81796 18.5886 4.80924C18.5392 4.79761 18.3036 4.78597 18.0623 4.78016C17.818 4.77434 17.6174 4.77434 17.6086 4.78307Z" fill="white"/>
<path d="M17.3384 7.13091C17.2744 7.14545 17.1058 7.21814 16.9604 7.28792C16.8179 7.36061 16.5824 7.50598 16.437 7.61356C16.2946 7.72405 16.0474 7.9363 15.8904 8.08749L15.6055 8.36371C15.6229 10.7595 15.6229 10.777 15.6811 10.7653C15.713 10.7624 15.9137 10.6723 16.1317 10.5676C16.3469 10.4659 16.6551 10.3001 16.815 10.2042C16.9749 10.1053 17.225 9.9396 17.3674 9.83202C17.5128 9.72444 17.7483 9.51219 17.8937 9.3639C18.0798 9.1691 18.1903 9.02372 18.2746 8.85799C18.3415 8.73006 18.4112 8.56724 18.4316 8.49455C18.449 8.42186 18.4665 8.27939 18.4665 8.17472C18.4665 8.07005 18.449 7.92758 18.4316 7.85489C18.4112 7.7822 18.3647 7.66299 18.3269 7.58739C18.2862 7.50889 18.2135 7.40131 18.1612 7.34025C18.1089 7.2821 18.0013 7.2036 17.9228 7.1658C17.821 7.11928 17.728 7.09893 17.6146 7.10183C17.5274 7.10474 17.4023 7.11637 17.3384 7.13091Z" fill="#1B2838"/>
<path d="M31.8217 7.11634C31.8159 7.12215 31.7665 7.13378 31.7083 7.14251C31.653 7.14832 31.5745 7.16286 31.5338 7.17159C31.496 7.18322 31.4233 7.19776 31.3739 7.20648C31.3274 7.2152 31.2547 7.24137 31.214 7.26173C31.1732 7.28499 31.1209 7.30244 31.0947 7.30244C31.0715 7.30244 31.0395 7.31116 31.0279 7.3257C31.0162 7.33734 30.9959 7.34606 30.9871 7.34606C30.9755 7.34897 30.8505 7.40712 30.7109 7.47691C30.5684 7.54961 30.4288 7.62231 30.3968 7.63685C30.3678 7.65429 30.3416 7.67465 30.3416 7.68919C30.3416 7.70082 30.3241 7.70954 30.3038 7.70954C30.2834 7.70954 30.1962 7.76479 30.109 7.83168C30.0188 7.89856 29.824 8.07885 29.6728 8.23296C29.5187 8.38417 29.3675 8.54702 29.3355 8.59354C29.3035 8.63716 29.2657 8.6895 29.2482 8.70986C29.2337 8.7273 29.1784 8.80582 29.1261 8.88142C29.0738 8.95703 29.0301 9.03263 29.0301 9.04717C29.0301 9.06462 29.0214 9.07625 29.0098 9.07625C28.9982 9.07625 28.9284 9.18966 28.8586 9.32924C28.7888 9.47172 28.7103 9.62875 28.6841 9.684C28.6579 9.73925 28.6376 9.79159 28.6347 9.80031C28.6347 9.80904 28.6259 9.83812 28.6143 9.86138C28.6056 9.88464 28.5678 9.98933 28.5329 10.094C28.5009 10.1987 28.466 10.3092 28.4602 10.3412C28.4544 10.3732 28.4369 10.4313 28.4224 10.472C28.4049 10.5127 28.3875 10.5854 28.3817 10.632C28.3759 10.6785 28.3642 10.7337 28.3526 10.7483C28.3439 10.7657 28.3293 10.8413 28.3177 10.9228C28.3061 11.0042 28.2915 11.1001 28.2857 11.1408C28.2799 11.1816 28.2654 11.3066 28.2537 11.4171C28.2421 11.5305 28.2305 11.8882 28.2305 12.2168C28.2305 12.5454 28.2392 12.9059 28.2537 13.0164C28.2654 13.1298 28.2828 13.2665 28.2915 13.3218C28.3003 13.377 28.3119 13.4497 28.3177 13.4817C28.3235 13.5137 28.3352 13.5806 28.3439 13.6271C28.3526 13.6765 28.3671 13.7434 28.3759 13.7812C28.3846 13.8161 28.3962 13.8743 28.4078 13.9121C28.4166 13.947 28.4253 13.9877 28.4311 14.0051C28.434 14.0226 28.4747 14.1447 28.5183 14.2814C28.562 14.418 28.6085 14.5547 28.6201 14.5867C28.6347 14.6187 28.6928 14.7495 28.7539 14.8775C28.815 15.0054 28.8847 15.1276 28.9051 15.1479C28.9255 15.1654 28.9429 15.2032 28.9429 15.2264C28.9429 15.2497 28.9574 15.27 28.972 15.27C28.9894 15.27 29.0011 15.2904 29.0011 15.3137C29.0011 15.3369 29.0156 15.3573 29.0301 15.3573C29.0476 15.3573 29.0592 15.3747 29.0592 15.3951C29.0592 15.4125 29.1028 15.4794 29.1552 15.5434C29.2075 15.6044 29.3616 15.7673 29.4954 15.9011C29.6321 16.0377 29.7978 16.1831 29.8618 16.2267C29.9258 16.2674 29.9839 16.3111 29.9926 16.3198C29.9985 16.3314 30.1468 16.4128 30.3183 16.503C30.4899 16.5931 30.6324 16.6571 30.6295 16.6455C30.6295 16.6309 30.6469 16.6367 30.6673 16.6542C30.6876 16.6716 30.7778 16.7094 30.865 16.7385C30.9522 16.7647 31.0395 16.7909 31.054 16.7967C31.0715 16.7996 31.1151 16.8112 31.1558 16.8199C31.1965 16.8316 31.2692 16.8461 31.3157 16.8548C31.3652 16.8636 31.464 16.881 31.5338 16.8926C31.6065 16.9014 31.8624 16.9101 32.1038 16.9101C32.3422 16.9101 32.6039 16.9014 32.6853 16.8897C32.7639 16.8781 32.8511 16.8607 32.8744 16.8548C32.8976 16.8461 32.95 16.8345 32.9907 16.8229C33.0314 16.8141 33.075 16.8054 33.0925 16.7996C33.107 16.7967 33.2 16.7676 33.296 16.7385C33.392 16.7094 33.4908 16.6775 33.5141 16.6658C33.5374 16.6542 33.6159 16.6164 33.6886 16.5815C33.7613 16.5495 33.8456 16.503 33.8776 16.4855C33.9096 16.4652 33.9881 16.4128 34.0521 16.3721C34.116 16.3285 34.2323 16.2384 34.3109 16.1686L34.4533 16.0406C34.3981 15.8603 34.3748 15.7876 34.3661 15.7644C34.3574 15.7411 34.3487 15.7149 34.3457 15.7062C34.3428 15.6975 34.3254 15.6393 34.3021 15.5754C34.2818 15.5114 34.2323 15.3893 34.1945 15.3078C34.1567 15.2235 34.1247 15.1392 34.1247 15.1246C34.1247 15.1101 34.1102 15.0607 34.0928 15.0171C34.0724 14.9705 34.055 14.9211 34.0521 14.9066C34.0491 14.892 34.0172 14.8164 33.9852 14.7408C33.9503 14.6623 33.9212 14.5838 33.9212 14.5663C33.9241 14.546 33.9096 14.5169 33.895 14.4995C33.8805 14.4849 33.8572 14.4268 33.8456 14.3715C33.8311 14.3163 33.8049 14.2668 33.7845 14.261C33.7642 14.2581 33.7293 14.2697 33.7089 14.2901C33.6886 14.3075 33.6333 14.3512 33.5868 14.3831C33.5403 14.418 33.3949 14.4936 33.2669 14.5547C33.139 14.6129 33.011 14.6768 32.982 14.6914C32.9558 14.7059 32.8831 14.7263 32.822 14.735C32.7639 14.7437 32.6941 14.7641 32.6708 14.7757C32.6475 14.7873 32.4614 14.7961 32.2637 14.7931C32.0631 14.7902 31.8653 14.7786 31.8246 14.767C31.7868 14.7553 31.7257 14.7379 31.6938 14.7263C31.6618 14.7175 31.5455 14.6565 31.432 14.5925C31.3215 14.5285 31.1616 14.4093 31.0802 14.3279C31.0017 14.2465 30.8825 14.0894 30.8185 13.976C30.7545 13.8626 30.6876 13.7405 30.6673 13.6998C30.6498 13.6591 30.612 13.5486 30.5829 13.4526C30.5568 13.3567 30.5306 13.2578 30.5248 13.2345C30.519 13.2113 30.5073 13.1386 30.4986 13.0746C30.4899 13.0106 30.4783 12.9525 30.4724 12.9437C30.4666 12.935 30.4521 12.7925 30.4376 12.6239C30.4259 12.4552 30.4172 12.2807 30.4172 12.2313C30.4172 12.1848 30.4259 12.0016 30.4376 11.8242C30.4492 11.6497 30.4637 11.4723 30.4695 11.4316C30.4754 11.3909 30.4899 11.3066 30.5015 11.2426C30.5132 11.1787 30.5219 11.106 30.5219 11.0827C30.5219 11.0594 30.5393 11.0216 30.5568 11.0013C30.5742 10.9809 30.58 10.9577 30.5655 10.9518C30.5539 10.9431 30.5626 10.8937 30.5859 10.8413C30.6091 10.7919 30.6353 10.7076 30.644 10.661C30.6527 10.6145 30.6789 10.5331 30.7022 10.4866C30.7254 10.44 30.7661 10.3441 30.7981 10.2743C30.8272 10.2074 30.8592 10.1522 30.8737 10.1522C30.8854 10.1522 30.8941 10.1405 30.8941 10.1231C30.8941 10.1056 30.9639 10.0068 31.0482 9.90209C31.1325 9.7945 31.2518 9.66655 31.3157 9.61712C31.3797 9.56768 31.4408 9.52116 31.4466 9.51243C31.4553 9.50371 31.5484 9.45427 31.6501 9.40193C31.7548 9.34959 31.874 9.30016 31.9119 9.29143C31.9526 9.28271 32.0311 9.26817 32.0892 9.25945C32.1445 9.25072 32.2608 9.242 32.3509 9.242C32.4382 9.242 32.5458 9.24781 32.5865 9.25363C32.6301 9.25945 32.6766 9.27689 32.6883 9.28853C32.7028 9.30016 32.7348 9.30888 32.758 9.30888C32.7813 9.30888 32.8889 9.35541 32.9965 9.41066C33.107 9.46591 33.2146 9.52988 33.2408 9.55024C33.2669 9.56768 33.3425 9.64038 33.4094 9.71017C33.4734 9.77705 33.5403 9.83521 33.5519 9.8323C33.5635 9.8323 33.6013 9.78287 33.6391 9.72471C33.674 9.66364 33.7467 9.5357 33.7991 9.43974C33.8514 9.34378 33.927 9.19256 33.9677 9.10533C34.0113 9.01809 34.055 8.93958 34.0666 8.93086C34.0811 8.92213 34.1277 8.84362 34.1684 8.75638C34.212 8.66915 34.2905 8.51212 34.3457 8.40744C34.4155 8.26786 34.4359 8.20388 34.4155 8.16899C34.401 8.13991 34.3574 8.08175 34.3225 8.03813C34.2876 7.99452 34.2294 7.93345 34.1974 7.90146C34.1655 7.86657 34.0928 7.8026 34.0375 7.75898C33.9823 7.71536 33.8979 7.64557 33.8485 7.60777C33.802 7.56706 33.6566 7.48564 33.5286 7.42166C33.4007 7.35769 33.1942 7.27336 33.0692 7.23265C32.9471 7.19194 32.7958 7.14832 32.7348 7.1396C32.6766 7.13088 32.4469 7.11924 32.2288 7.11343C32.0107 7.10761 31.8275 7.10761 31.8217 7.11634Z" fill="white"/>
<path d="M17.6937 12.0801C17.5919 12.1005 17.4 12.1528 17.2721 12.1964C17.1442 12.2371 16.9145 12.3331 16.7633 12.4029C16.6121 12.4756 16.362 12.618 16.2109 12.7198C16.0597 12.8216 15.8794 12.9495 15.8096 13.0076L15.6875 13.1123V15.0894C16.2603 15.1011 16.6528 15.0953 16.9232 15.0836C17.1965 15.0749 17.5571 15.0429 17.7228 15.0168C17.8914 14.9906 18.1357 14.9441 18.2636 14.9121C18.3915 14.8801 18.5631 14.8278 18.6474 14.7958C18.7317 14.7667 18.8829 14.6998 18.9847 14.6504C19.098 14.5923 19.2405 14.4818 19.3714 14.3509C19.5458 14.1736 19.5865 14.1154 19.6389 13.9497C19.6737 13.8392 19.7028 13.688 19.7028 13.6066C19.7028 13.5281 19.6825 13.3653 19.6563 13.2519C19.633 13.1356 19.5633 12.9408 19.508 12.8216C19.4353 12.6704 19.3481 12.5483 19.226 12.4261C19.1242 12.3244 18.9817 12.2197 18.8887 12.1761C18.8015 12.1354 18.659 12.086 18.5747 12.0685C18.4904 12.0511 18.3014 12.0365 18.1531 12.0394C18.0048 12.0394 17.7984 12.0598 17.6937 12.0801Z" fill="#1B2838"/>
<path d="M5.65222 16.5616C5.56498 16.7564 5.38178 17.1926 5.2393 17.527C5.09972 17.8643 4.87872 18.4256 4.74496 18.7774C4.6141 19.1293 4.36984 19.8243 4.20409 20.3186C4.03834 20.8129 3.80571 21.5603 3.68649 21.9761C3.56435 22.3919 3.40151 22.988 3.32009 23.2992C3.23867 23.6103 3.10782 24.1541 3.0264 24.5059C2.94498 24.8578 2.79377 25.5644 2.69199 26.0762C2.59021 26.588 2.44773 27.3789 2.37503 27.8355C2.30233 28.292 2.20347 28.9666 2.15403 29.333C2.1075 29.7023 2.03481 30.3101 1.9941 30.6852C1.9563 31.0603 1.88941 31.8135 1.85161 32.3572C1.8109 32.901 1.7731 33.4913 1.76437 33.6658C1.75565 33.8432 1.73239 34.5149 1.71494 35.1633C1.68877 36.0502 1.68877 36.6347 1.71494 37.5333C1.73239 38.1905 1.75565 38.8622 1.76437 39.0308C1.7731 39.1995 1.79927 39.6182 1.82253 39.9614C1.8458 40.3045 1.8836 40.8163 1.90686 41.0954C1.93303 41.3746 1.97083 41.7933 1.99701 42.0259C2.02027 42.2586 2.06679 42.6628 2.09878 42.9274C2.13077 43.192 2.18893 43.6369 2.22673 43.9161C2.26744 44.1952 2.35177 44.7448 2.41865 45.1374C2.48262 45.5299 2.61057 46.2366 2.70653 46.7076C2.79958 47.1787 2.93916 47.8272 3.01186 48.147C3.08455 48.4669 3.21832 49.0049 3.30265 49.3393C3.38988 49.6766 3.54691 50.2436 3.64868 50.6042C3.75337 50.9648 3.93075 51.5522 4.04706 51.9128C4.16047 52.2733 4.35821 52.8549 4.48325 53.2068C4.60829 53.5586 4.80602 54.0879 4.91943 54.3845C5.03284 54.6811 5.23057 55.1638 5.35561 55.4604C5.48065 55.757 5.68711 56.2281 5.81506 56.5072C5.943 56.7864 6.13202 57.1848 6.23379 57.3941L6.4199 57.7721L6.43444 17.1345C5.97499 16.4482 5.83541 16.2388 5.82669 16.2272C5.81506 16.2156 5.73654 16.3639 5.65222 16.5616Z" fill="#9F1F33"/>
<path d="M41.4523 16.3887C41.4087 16.4614 41.3709 16.5341 41.3709 16.5486C41.3709 16.5631 41.3593 16.5777 41.3418 16.5777C41.3273 16.5777 41.3127 16.598 41.3127 16.6213C41.3127 16.6446 41.3011 16.6649 41.2836 16.6649C41.2691 16.6649 41.2546 16.6824 41.2575 16.7027C41.2575 16.7202 41.2313 16.7667 41.1993 16.8045C41.1644 16.8394 41.1383 16.883 41.1383 16.8975C41.1383 16.915 41.1295 16.9266 41.1179 16.9266C41.1063 16.9266 41.0568 16.9906 41.0074 17.072C40.9609 17.1505 40.9114 17.2174 40.8998 17.2174C40.8882 17.2174 40.8765 17.232 40.8765 17.2465C40.8765 17.261 40.862 17.293 40.8416 17.3163C40.8213 17.3366 40.7835 17.3861 40.7602 17.421C40.737 17.4559 40.6875 17.5198 40.6497 17.5605C40.6148 17.6042 40.548 17.6914 40.5043 17.7554C40.4607 17.8193 40.3909 17.9124 40.3473 17.9589C40.3008 18.0055 40.2659 18.052 40.2659 18.0607C40.2688 18.0694 40.2368 18.1101 40.2019 18.1508C40.1641 18.1945 40.103 18.2701 40.0623 18.3195C40.0216 18.3718 39.9635 18.4445 39.9315 18.4794C39.8995 18.5172 39.8355 18.5928 39.789 18.6452C39.7454 18.7004 39.6523 18.808 39.5854 18.8836C39.5186 18.9621 39.3906 19.1046 39.2976 19.2035L39.1289 19.3838L39.1318 38.0379C44.9708 38.0379 45.6571 38.0291 45.6716 38.003C45.6833 37.9826 45.6891 37.2585 45.6891 36.3949C45.6891 35.5313 45.6746 34.499 45.6542 34.0977C45.6368 33.6993 45.6164 33.2718 45.6077 33.1526C45.5989 33.0334 45.5728 32.6525 45.5495 32.3093C45.5233 31.9662 45.4797 31.4166 45.4477 31.088C45.4157 30.7594 45.3489 30.172 45.3023 29.7795C45.2529 29.3869 45.1686 28.7588 45.1133 28.3837C45.0581 28.0086 44.9592 27.4066 44.8952 27.0461C44.8284 26.6855 44.7237 26.1301 44.6597 25.8102C44.5928 25.4903 44.4823 24.9727 44.4096 24.6616C44.3398 24.3505 44.2264 23.8852 44.1625 23.6293C44.0985 23.3734 43.988 22.9489 43.9153 22.6842C43.8426 22.4196 43.6943 21.902 43.5838 21.5356C43.4733 21.1692 43.2726 20.5411 43.1389 20.1398C43.0022 19.7415 42.8045 19.1773 42.6969 18.8894C42.5893 18.6016 42.4003 18.1101 42.2723 17.799C42.1473 17.4878 41.9583 17.0371 41.8507 16.7958C41.746 16.5573 41.653 16.3363 41.6471 16.3102C41.6384 16.2811 41.6122 16.2578 41.5832 16.2578C41.5541 16.2578 41.4959 16.316 41.4523 16.3887Z" fill="white"/>
<path d="M13.0014 16.9985C12.9868 17.0102 12.9781 17.0363 12.981 17.0596C12.9839 17.0857 13.0246 17.0945 13.109 17.0916C13.2107 17.0887 13.2165 17.0857 13.138 17.077C13.0799 17.0712 13.0392 17.0509 13.0363 17.0218C13.0305 16.9956 13.0159 16.984 13.0014 16.9985ZM17.1766 17.1177C17.3307 17.1235 17.5837 17.1235 17.7436 17.1177C17.9064 17.1148 17.7814 17.109 17.4674 17.109C17.1563 17.109 17.0254 17.1148 17.1766 17.1177Z" fill="#DEDEE2"/>
<path d="M24.895 18.2097C24.8863 18.2184 24.8252 18.2358 24.7612 18.2446C24.6973 18.2562 24.5751 18.2998 24.485 18.3434C24.3978 18.387 24.2873 18.4452 24.2378 18.4772C24.1913 18.5092 24.0779 18.608 23.9907 18.6982C23.9034 18.7912 23.8016 18.9017 23.7668 18.9483C23.729 18.9919 23.6999 19.0471 23.6999 19.0675C23.6999 19.0849 23.6911 19.1024 23.6766 19.1024C23.665 19.1024 23.6155 19.1896 23.5632 19.2972C23.5109 19.4077 23.4498 19.5531 23.4236 19.6258C23.3975 19.6985 23.3713 19.7828 23.3655 19.8148C23.3596 19.8468 23.3451 19.905 23.3364 19.9457C23.3277 19.9864 23.3131 20.0649 23.3044 20.1201C23.2928 20.1754 23.2811 20.2626 23.2753 20.3092C23.2695 20.3586 23.2637 20.5214 23.2608 20.6726C23.2608 20.8239 23.2666 21.0158 23.2753 21.0943C23.287 21.1757 23.2986 21.2717 23.3044 21.3124C23.3102 21.3531 23.3248 21.4171 23.3364 21.4578C23.3451 21.4985 23.3596 21.5625 23.3684 21.6032C23.3771 21.6439 23.3887 21.6817 23.3945 21.6904C23.4004 21.6991 23.4149 21.7369 23.4236 21.7776C23.4323 21.8184 23.4905 21.955 23.5545 22.083C23.6185 22.2109 23.6882 22.3418 23.7086 22.3708C23.726 22.4028 23.758 22.4465 23.7726 22.4697C23.79 22.493 23.9034 22.6151 24.0285 22.7402C24.1506 22.8681 24.2727 22.9699 24.296 22.9699C24.3222 22.9699 24.3396 22.9786 24.3396 22.9931C24.3396 23.0048 24.3803 23.0338 24.4327 23.0571C24.4879 23.0804 24.5432 23.1007 24.5577 23.1036C24.5751 23.1065 24.6478 23.1269 24.7176 23.1502C24.7903 23.1734 24.9357 23.188 25.0404 23.1851C25.1422 23.1821 25.273 23.1705 25.3312 23.1589C25.3864 23.1502 25.5289 23.092 25.6482 23.0338C25.7819 22.967 25.9302 22.8623 26.0407 22.7518C26.1396 22.6558 26.2617 22.5162 26.3141 22.4406C26.3664 22.3621 26.4071 22.2894 26.4071 22.272C26.4071 22.2574 26.4187 22.2429 26.4304 22.2429C26.442 22.2458 26.4682 22.2051 26.4885 22.1557C26.5089 22.1091 26.5234 22.0626 26.5234 22.0539C26.5234 22.0452 26.5467 21.9957 26.5729 21.9463C26.599 21.894 26.6281 21.83 26.6397 21.8067C26.6514 21.7835 26.6688 21.7195 26.6805 21.67C26.6892 21.6177 26.7008 21.5654 26.7008 21.5537C26.7037 21.5392 26.7153 21.5101 26.7299 21.4869C26.7415 21.4636 26.7619 21.3647 26.7735 21.2688C26.788 21.1728 26.7968 20.9169 26.7968 20.7017C26.7968 20.4865 26.788 20.2568 26.7793 20.1928C26.7677 20.1289 26.7502 20.03 26.7386 19.9748C26.7299 19.9195 26.7095 19.8497 26.695 19.8206C26.6805 19.7945 26.6775 19.7712 26.6834 19.7712C26.6921 19.7712 26.6746 19.7014 26.6456 19.62C26.6165 19.5357 26.57 19.431 26.5438 19.3845C26.5176 19.3408 26.506 19.3059 26.5176 19.3059C26.5292 19.3088 26.5234 19.2914 26.5031 19.271C26.4856 19.2507 26.4391 19.178 26.4013 19.1111C26.3664 19.0442 26.3024 18.9454 26.2617 18.893C26.221 18.8407 26.1367 18.7447 26.0727 18.6807C26.0087 18.6168 25.9244 18.5412 25.8895 18.515C25.8546 18.4859 25.811 18.4627 25.7965 18.4627C25.779 18.4627 25.7674 18.4539 25.7674 18.4423C25.7674 18.4278 25.7179 18.3958 25.6598 18.3667C25.5987 18.3376 25.5435 18.3173 25.5347 18.3173C25.526 18.3202 25.4795 18.3056 25.433 18.2882C25.3835 18.2678 25.3196 18.2475 25.2876 18.2417C25.2556 18.2329 25.1567 18.2184 25.0695 18.2097C24.9793 18.2009 24.9008 18.2009 24.895 18.2097ZM29.0271 18.2387C29.0184 18.2475 28.9486 18.2591 28.8672 18.2678C28.7887 18.2765 28.6898 18.294 28.6491 18.3027C28.6084 18.3114 28.5444 18.326 28.5037 18.3347C28.463 18.3434 28.4165 18.3609 28.4019 18.3696C28.3845 18.3812 28.367 18.39 28.3583 18.39C28.3496 18.39 28.2856 18.4161 28.2187 18.4481C28.1489 18.4801 28.0937 18.515 28.0966 18.5295C28.0966 18.5412 28.0791 18.5499 28.0588 18.5499C28.0384 18.5499 27.9628 18.611 27.8901 18.6895C27.8174 18.7651 27.7331 18.8669 27.7011 18.9134C27.6691 18.9628 27.611 19.0849 27.5703 19.1896C27.5121 19.3496 27.5005 19.431 27.5005 19.713C27.5005 19.8962 27.5092 20.0736 27.5179 20.1056C27.5266 20.1376 27.5499 20.2219 27.5732 20.2946C27.5935 20.3673 27.6284 20.4458 27.6488 20.4691C27.6691 20.4924 27.6866 20.5214 27.6866 20.536C27.6895 20.5476 27.704 20.5767 27.7244 20.6029C27.7447 20.629 27.8029 20.693 27.8523 20.7424C27.9018 20.7919 27.9657 20.85 27.9919 20.8704C28.0181 20.8878 28.0791 20.9314 28.1315 20.9634C28.1838 20.9925 28.3176 21.0478 28.431 21.0827C28.5444 21.1176 28.6549 21.1524 28.6782 21.1583C28.7014 21.1641 28.7741 21.1757 28.8381 21.1873C28.9021 21.199 29.0242 21.2048 29.1085 21.2019C29.2278 21.1961 29.2597 21.2048 29.2597 21.2397C29.2597 21.2629 29.2452 21.3124 29.2278 21.3473C29.2103 21.3851 29.187 21.42 29.1754 21.4287C29.1667 21.4374 29.1347 21.4781 29.1085 21.5247C29.0795 21.5683 28.9922 21.6352 28.9108 21.6759C28.8323 21.7166 28.7102 21.7689 28.6433 21.7893C28.556 21.8213 28.4223 21.83 28.1984 21.8242C28.021 21.8184 27.8494 21.8038 27.8116 21.7951C27.7476 21.7776 27.7476 21.7805 27.7447 22.1062V22.4319C27.9832 22.5104 28.1111 22.5424 28.1838 22.554C28.2565 22.5628 28.399 22.5715 28.5037 22.5715C28.6084 22.5715 28.7392 22.5628 28.7945 22.554C28.8497 22.5424 28.9282 22.5279 28.969 22.5192C29.0097 22.5104 29.0765 22.4959 29.1144 22.4872C29.1551 22.4784 29.2336 22.4523 29.2888 22.4261C29.347 22.4028 29.4313 22.365 29.4778 22.3418C29.5273 22.3185 29.5942 22.2836 29.6261 22.2633C29.661 22.2429 29.725 22.2022 29.7715 22.1702C29.8181 22.1382 29.9489 22.019 30.0594 21.9056C30.1728 21.7922 30.2775 21.6788 30.295 21.6555C30.3095 21.6322 30.3386 21.5886 30.3589 21.5566C30.3764 21.5276 30.4316 21.42 30.4811 21.3211C30.5305 21.2193 30.5712 21.1292 30.5741 21.1176C30.5741 21.103 30.5857 21.0797 30.6003 21.0652C30.6148 21.0507 30.6323 21.0041 30.641 20.9634C30.6497 20.9227 30.6643 20.8587 30.673 20.818C30.6846 20.7773 30.705 20.693 30.7166 20.629C30.7311 20.5651 30.737 20.3441 30.734 20.1347C30.7282 19.9282 30.7137 19.7101 30.705 19.6549C30.6933 19.5996 30.6759 19.5328 30.6672 19.5095C30.6584 19.4862 30.6439 19.4455 30.641 19.4223C30.6352 19.399 30.5828 19.2798 30.5218 19.1605C30.4491 19.0152 30.3531 18.8843 30.2339 18.768C30.135 18.672 30.0332 18.5761 30.0071 18.5586C29.9809 18.5383 29.9518 18.5208 29.946 18.5208C29.9373 18.5208 29.8937 18.4946 29.85 18.4627C29.8064 18.4278 29.7512 18.3987 29.7279 18.3958C29.7017 18.39 29.6523 18.3725 29.6174 18.3522C29.5825 18.3318 29.5505 18.3231 29.5505 18.3318C29.5505 18.3405 29.5156 18.3318 29.472 18.3144C29.4284 18.2969 29.3644 18.2765 29.3324 18.2707C29.3005 18.2649 29.2219 18.2533 29.158 18.2417C29.094 18.2329 29.0358 18.23 29.0271 18.2387ZM20.3762 18.3056C20.3703 18.3114 20.3471 18.3231 20.3238 18.326C20.2976 18.3318 20.2075 18.358 20.1174 18.3841C20.0301 18.4103 19.8964 18.4714 19.8208 18.5208C19.7452 18.5673 19.6056 18.6837 19.5096 18.7767C19.4166 18.8668 19.3119 18.989 19.277 19.0442C19.245 19.0995 19.2014 19.178 19.1839 19.2187C19.1636 19.2594 19.1345 19.3292 19.1112 19.3786C19.0909 19.4252 19.0647 19.524 19.0531 19.5967C19.0414 19.6694 19.0327 19.8323 19.0327 19.9602C19.0327 20.0882 19.0385 20.2394 19.0502 20.2946C19.0589 20.3499 19.0734 20.4313 19.0822 20.4749C19.0909 20.5214 19.1141 20.5912 19.1345 20.6378C19.1519 20.6814 19.1723 20.7366 19.1752 20.7599C19.181 20.7831 19.2217 20.8558 19.2653 20.9198C19.309 20.9838 19.4049 21.0943 19.4776 21.167C19.5503 21.2397 19.687 21.3386 19.783 21.3851C19.9342 21.4607 19.9923 21.4694 20.2075 21.4694C20.3413 21.4694 20.5332 21.4607 20.6291 21.449C20.7251 21.4345 20.8094 21.42 20.8182 21.4142C20.8269 21.4083 20.8676 21.3967 20.9112 21.388C20.9548 21.3793 21.0275 21.3647 21.0711 21.356C21.1177 21.3473 21.17 21.3327 21.1875 21.3269C21.2107 21.3182 21.2253 21.3356 21.2253 21.3705C21.2253 21.4025 21.202 21.513 21.1729 21.6177C21.1467 21.7224 21.1148 21.8067 21.1002 21.8067C21.0886 21.8067 21.0799 21.8213 21.0799 21.8358C21.0799 21.8532 21.0508 21.894 21.013 21.9289C20.9781 21.9667 20.8938 22.0219 20.8327 22.051C20.7687 22.083 20.696 22.112 20.6728 22.1179C20.6466 22.1237 20.5361 22.1295 20.4256 22.1295C20.3122 22.1295 20.1901 22.1208 20.1552 22.112C20.1203 22.1033 20.0679 22.0917 20.0388 22.0859C20.0098 22.0801 19.8905 22.0394 19.7684 21.9957C19.6492 21.9521 19.5009 21.891 19.4427 21.862C19.3817 21.83 19.3206 21.8067 19.3032 21.8067C19.2857 21.8067 19.2741 21.9492 19.2741 22.1789C19.2712 22.4465 19.2828 22.557 19.309 22.5831C19.3293 22.6006 19.4456 22.6675 19.5649 22.7314C19.687 22.7925 19.8295 22.8594 19.8847 22.8768C19.9429 22.8972 20.0214 22.9204 20.0592 22.9292C20.0999 22.9379 20.1726 22.9524 20.222 22.9611C20.2686 22.9699 20.4314 22.9786 20.5855 22.9786C20.7367 22.9815 20.8938 22.9728 20.9345 22.9641C20.9752 22.9553 21.0421 22.9321 21.0857 22.9146C21.1322 22.8972 21.1671 22.8885 21.1671 22.8972C21.1671 22.9059 21.2485 22.8681 21.3503 22.8187C21.4492 22.7663 21.548 22.7053 21.5684 22.6878C21.5917 22.6675 21.6178 22.65 21.6266 22.65C21.6382 22.65 21.708 22.5889 21.7836 22.5133C21.8592 22.4348 21.9522 22.3389 21.99 22.2952C22.0249 22.2516 22.1093 22.1091 22.1732 21.9754C22.2401 21.8416 22.3099 21.6817 22.3303 21.6177C22.3506 21.5537 22.3739 21.4752 22.3797 21.4432C22.3826 21.4112 22.3971 21.3327 22.4088 21.2688C22.4204 21.2048 22.432 20.9431 22.432 20.6872C22.432 20.4313 22.4233 20.1638 22.4117 20.0911C22.4 20.0184 22.3826 19.9224 22.3739 19.873C22.3652 19.8265 22.3157 19.6694 22.2663 19.524C22.2198 19.3815 22.1587 19.2187 22.1325 19.1664C22.1064 19.114 22.0744 19.0733 22.0627 19.0733C22.0511 19.0733 22.0395 19.053 22.0395 19.0297C22.0395 19.0064 22.0278 18.9861 22.0104 18.9861C21.9959 18.9861 21.9813 18.9686 21.9842 18.9483C21.9842 18.9308 21.9028 18.832 21.801 18.7302C21.6992 18.6313 21.6004 18.5499 21.5829 18.5499C21.5626 18.5499 21.5451 18.5412 21.5451 18.5295C21.548 18.515 21.4724 18.4714 21.3794 18.4278C21.2863 18.3841 21.17 18.3405 21.1235 18.3289C21.0741 18.3173 20.8909 18.3056 20.7106 18.2998C20.5332 18.2969 20.382 18.2969 20.3762 18.3056ZM17.1978 18.4714C17.1571 18.5383 17.0873 18.6255 17.0437 18.6662C16.9972 18.7069 16.8867 18.7709 16.7995 18.8087C16.7122 18.8465 16.6134 18.8814 16.5814 18.8872C16.5494 18.893 16.4883 18.9047 16.4418 18.9134L16.3633 18.9279V19.5386C16.7122 19.5182 16.8402 19.5066 16.8722 19.4979C16.9041 19.492 16.9449 19.4833 16.9652 19.4833C16.9827 19.4804 17.0205 19.4601 17.0437 19.4368C17.0873 19.3961 17.0903 19.5153 17.0903 20.7308V22.0684C17.2386 22.1324 17.3723 22.1847 17.4828 22.2284C17.5962 22.272 17.7125 22.3156 17.7445 22.3301C17.7794 22.3418 17.8405 22.365 17.8841 22.3854C17.9277 22.4028 18.0004 22.4319 18.044 22.4494C18.0877 22.4668 18.1487 22.493 18.1749 22.5075C18.204 22.5221 18.2331 22.5337 18.2418 22.5337C18.2476 22.5337 18.2563 21.6119 18.2563 20.4836C18.2563 19.146 18.2447 18.4278 18.2272 18.419C18.2098 18.4103 18.0818 18.3987 17.9423 18.39C17.8027 18.3812 17.5933 18.3696 17.477 18.3609L17.2676 18.3492L17.1978 18.4714Z" fill="white"/>
<path d="M16.3383 19.2323L16.3441 19.5579C16.3616 18.9764 16.3674 18.9299 16.411 18.9212C16.4488 18.9124 16.443 18.9095 16.3965 18.9066C16.3325 18.9037 16.3325 18.9095 16.3383 19.2323Z" fill="#DEDEE2"/>
<path d="M20.4979 19.1758C20.4397 19.1962 20.3525 19.2427 20.3002 19.2776C20.242 19.3154 20.1751 19.4085 20.1286 19.5102C20.0588 19.6615 20.053 19.7022 20.0617 19.9406C20.0733 20.1703 20.085 20.2227 20.1635 20.3477C20.2246 20.4466 20.2914 20.5106 20.3816 20.5571C20.4543 20.5949 20.5648 20.6211 20.6346 20.6211C20.7044 20.6211 20.8003 20.6036 20.8527 20.5833C20.905 20.56 20.9981 20.4989 21.0591 20.4437C21.1202 20.3884 21.1987 20.2867 21.2307 20.214C21.2743 20.1238 21.2917 20.0308 21.2888 19.9086C21.2888 19.8068 21.2598 19.6615 21.2191 19.5597C21.1842 19.4637 21.1144 19.3474 21.0649 19.298C21.0155 19.2514 20.9254 19.1933 20.8614 19.1758C20.7974 19.1555 20.7102 19.138 20.6724 19.1409C20.6317 19.1409 20.5531 19.1555 20.4979 19.1758ZM28.8959 19.2078C28.8086 19.2514 28.7185 19.3241 28.672 19.391C28.6283 19.4521 28.5789 19.5597 28.5615 19.6324C28.5411 19.7051 28.5353 19.8127 28.544 19.8737C28.5527 19.9319 28.5876 20.0308 28.6167 20.0918C28.6487 20.15 28.7098 20.2343 28.7563 20.2779C28.7999 20.3215 28.8755 20.371 28.9191 20.3855C28.9627 20.403 29.0587 20.4175 29.1285 20.4175C29.2012 20.4175 29.2972 20.4001 29.3408 20.3768C29.3844 20.3564 29.46 20.2925 29.5094 20.2401C29.5589 20.1849 29.6228 20.0773 29.6519 19.9959C29.6926 19.8883 29.7013 19.8127 29.6868 19.7051C29.6752 19.6266 29.6345 19.5044 29.5938 19.4375C29.556 19.3678 29.4745 19.2805 29.4135 19.2398C29.3524 19.202 29.2448 19.1613 29.1721 19.1526C29.0703 19.138 29.0122 19.1497 28.8959 19.2078ZM24.7405 19.3416C24.6533 19.3968 24.5631 19.4899 24.4933 19.5975C24.4352 19.6876 24.3538 19.8621 24.313 19.9813C24.2462 20.1791 24.2403 20.243 24.2403 20.6792C24.2403 21.1299 24.2433 21.1736 24.3218 21.3916C24.3654 21.5196 24.4526 21.697 24.5108 21.7813C24.5689 21.8714 24.6736 21.9761 24.7463 22.0227C24.8394 22.0808 24.9179 22.1041 25.0022 22.1041C25.0691 22.1041 25.1738 22.0808 25.2348 22.0488C25.2959 22.0197 25.3861 21.9471 25.4384 21.8889C25.4907 21.8307 25.5722 21.7086 25.6187 21.6185C25.6652 21.5254 25.7263 21.3655 25.7554 21.2608C25.7932 21.1212 25.8077 20.9671 25.8077 20.6792C25.8077 20.3942 25.7932 20.2343 25.7554 20.0976C25.7263 19.993 25.6623 19.8243 25.6129 19.7225C25.5605 19.6207 25.4646 19.487 25.3948 19.4259C25.3279 19.3619 25.2377 19.3009 25.1999 19.2834C25.1592 19.2689 25.0691 19.2544 25.0022 19.2544C24.915 19.2544 24.8365 19.2805 24.7405 19.3416Z" fill="#1B2838"/>
<path d="M37.2953 21.0973C37.0976 21.2689 36.7574 21.5422 36.5393 21.705C36.3241 21.8708 35.9781 22.1209 35.7687 22.2634C35.5622 22.4058 35.2336 22.6239 35.0417 22.7432C34.8498 22.8653 34.495 23.0776 34.2537 23.2113C34.0152 23.348 33.5558 23.5923 33.2359 23.7493C32.9161 23.9092 32.5671 24.0779 32.4653 24.1215C32.3607 24.168 32.2589 24.2175 32.2385 24.2349C32.2065 24.2611 32.2007 25.683 32.2007 31.8797L32.2036 39.4897H24.457V44.9274H32.2036C32.2036 65.9281 32.2095 68.2748 32.2385 68.2661C32.2589 68.2603 32.413 68.1614 32.5817 68.0451C32.7503 67.9259 32.9917 67.7514 33.1196 67.6554C33.2476 67.5595 33.5093 67.3559 33.7012 67.1989C33.8931 67.0448 34.2217 66.7714 34.4311 66.5882C34.6375 66.4079 35.097 65.9718 35.4488 65.617C35.8036 65.2651 36.2863 64.7563 36.5247 64.4829C36.7632 64.2125 37.118 63.785 37.3157 63.5379L37.6763 63.0871V44.9274L45.01 44.9419C45.0565 44.6715 45.1088 44.3197 45.1553 43.9823C45.2048 43.645 45.2688 43.1565 45.3007 42.8919C45.3356 42.6273 45.3938 42.0777 45.4345 41.6706C45.4723 41.2635 45.5276 40.6586 45.5508 40.3271C45.5741 39.9927 45.5944 39.6699 45.5944 39.606V39.4897H37.6763L37.6559 20.7891L37.2953 21.0973Z" fill="#9F1F33"/>
<path d="M19.2578 22.1711C19.2578 22.3804 19.2636 22.4589 19.2694 22.3455C19.2724 22.2351 19.2724 22.0635 19.2694 21.9676C19.2636 21.8716 19.2578 21.9647 19.2578 22.1711Z" fill="#DEDEE2"/>
<path d="M12.3438 44.4023V66.0282C12.9166 66.5458 13.2539 66.8395 13.4633 67.014C13.6727 67.1914 14.039 67.4792 14.2804 67.6566C14.5218 67.8369 14.8416 68.0666 14.9928 68.1713C15.1469 68.276 15.429 68.4592 15.6209 68.5784C15.8129 68.7005 16.1327 68.8896 16.3334 69.0001C16.534 69.1135 16.88 69.2967 17.104 69.4072C17.3279 69.5206 17.7146 69.6979 17.9647 69.8026C18.2119 69.9073 18.4445 70.0004 18.4794 70.0091L18.5463 70.0265V25.3615C18.3543 25.3149 18.1072 25.248 17.8775 25.1841C17.6448 25.1172 17.2523 25.0009 17.0022 24.9195C16.755 24.838 16.3944 24.713 16.2025 24.6432C16.0106 24.5734 15.6646 24.4367 15.4377 24.3408C15.2109 24.2477 14.83 24.0791 14.5945 23.9686C14.356 23.8581 13.9489 23.6545 13.6843 23.5149C13.4197 23.3754 13.0184 23.1515 12.7945 23.0148C12.5706 22.881 12.3786 22.7734 12.367 22.7734C12.3554 22.7734 12.3438 32.5061 12.3438 44.4023Z" fill="#9F1F33"/>
<path d="M30.7064 24.8279C30.7355 24.8425 30.7442 26.2674 30.7501 31.4347L30.7588 38.021C30.7733 25.1362 30.7704 24.8047 30.721 24.8047C30.6861 24.8047 30.6832 24.8134 30.7064 24.8279Z" fill="#DEDEE2"/>
<path d="M30.6566 24.8476C30.6508 24.8563 30.6014 24.8679 30.549 24.8766C30.4967 24.8854 30.4269 24.9057 30.3891 24.9203C30.3542 24.9348 30.3135 24.9464 30.3019 24.9493C30.2902 24.9493 30.2117 24.9784 30.1274 25.0104C30.0431 25.0424 29.9297 25.0773 29.8744 25.086C29.8163 25.0947 29.7552 25.118 29.7348 25.1354C29.7116 25.1558 29.697 25.1616 29.697 25.15C29.697 25.1355 29.6621 25.1413 29.6185 25.1587C29.5749 25.1762 29.5167 25.1965 29.4877 25.2023C29.4586 25.2081 29.415 25.2198 29.3859 25.2256C29.3568 25.2314 29.2754 25.2547 29.2027 25.275C29.1329 25.2954 29.0602 25.3157 29.0428 25.3186C29.0282 25.3245 28.9817 25.3361 28.941 25.3448C28.9003 25.3535 28.8363 25.3681 28.7956 25.3768C28.7549 25.3855 28.6706 25.4059 28.6066 25.4204C28.5426 25.435 28.4641 25.4524 28.4321 25.4611C28.4001 25.4669 28.342 25.4786 28.3013 25.4902C28.2605 25.4989 28.2024 25.5135 28.1704 25.5193C28.1384 25.5251 28.0803 25.5367 28.0395 25.5455C27.9988 25.5571 27.9145 25.5716 27.8505 25.5774C27.7866 25.5862 27.7139 25.6007 27.6906 25.6065C27.6644 25.6153 27.6121 25.6269 27.5743 25.6356C27.5336 25.6443 27.4551 25.6589 27.3998 25.6676C27.3417 25.6763 27.2631 25.6879 27.2224 25.6938C27.1846 25.6996 27.0974 25.7141 27.0334 25.7228C26.9694 25.7316 26.8851 25.7461 26.8444 25.7519C26.8066 25.7577 26.7194 25.7723 26.6554 25.781C26.5914 25.7897 26.4751 25.8043 26.3937 25.813C26.3152 25.8217 26.2163 25.8333 26.1756 25.8362C26.1349 25.8421 26.0186 25.8537 25.9139 25.8653C25.8092 25.8741 25.6464 25.8886 25.5504 25.8973C25.4544 25.906 25.2771 25.9206 25.1578 25.9322C25.0357 25.9409 24.8467 25.9526 24.7333 25.9555C24.6228 25.9584 24.5152 25.9613 24.4948 25.9642C24.4658 25.97 24.457 27.2 24.457 32.0039V38.0377H30.7468C30.7468 25.9555 30.741 24.8359 30.709 24.8359C30.6857 24.8359 30.6625 24.8418 30.6566 24.8476Z" fill="white"/>
<path d="M37.6748 54.011L37.6719 63.0894C37.9598 62.7056 38.1342 62.47 38.2418 62.3188C38.3523 62.1676 38.5966 61.8129 38.7885 61.5337L39.1316 61.0248V46.3836L44.7613 46.3691C44.8165 46.055 44.8718 45.7381 44.9183 45.4676C44.9678 45.1972 44.9997 44.9646 44.9939 44.953C44.9881 44.9384 43.3393 44.9297 41.3271 44.9297H37.6748V54.011Z" fill="#1B2838"/>
<path d="M24.457 58.6753V70.9757C24.7856 70.9495 25.0124 70.9292 25.1724 70.9146C25.3323 70.8972 25.594 70.8652 25.7539 70.8419C25.9139 70.8187 26.1814 70.7721 26.3501 70.7402C26.5187 70.7082 26.8008 70.65 26.9753 70.6093C27.1526 70.5686 27.4929 70.4784 27.7342 70.4087C27.9727 70.3389 28.374 70.208 28.6211 70.1179C28.8683 70.0277 29.255 69.8765 29.4789 69.7776C29.7058 69.6817 30.0809 69.5043 30.3164 69.388L30.7468 69.1728V46.375H24.457V58.6753ZM39.1331 53.6592C39.1331 58.4951 39.1418 60.9435 39.1622 60.9435C39.1767 60.9435 39.2145 60.8999 39.2436 60.8504C39.2756 60.7981 39.4065 60.5771 39.5402 60.3619C39.6711 60.1467 39.9066 59.7484 40.0636 59.475C40.2207 59.2046 40.494 58.6986 40.6772 58.3555C40.8575 58.0123 41.0669 57.5994 41.1425 57.4395C41.2181 57.2796 41.3547 56.9917 41.4449 56.7998C41.5379 56.6078 41.7502 56.1309 41.9189 55.7384C42.0875 55.3458 42.2969 54.8428 42.3841 54.6189C42.4714 54.3949 42.6284 53.982 42.7331 53.7029C42.8378 53.4237 43.0006 52.9643 43.0966 52.6851C43.1896 52.4059 43.3554 51.9 43.4601 51.5656C43.5618 51.2312 43.7276 50.6816 43.8235 50.3443C43.9166 50.0099 44.0736 49.4254 44.1667 49.0503C44.2597 48.6751 44.3848 48.1575 44.4429 47.9016C44.4982 47.6457 44.5941 47.2067 44.6494 46.9275C44.7046 46.6483 44.7512 46.4099 44.7512 46.3983C44.7512 46.3837 43.4862 46.375 41.9421 46.375H39.1331V53.6592Z" fill="white"/>
</g>
<defs>
<clipPath id="clip0_5952_22963">
<rect width="47.3985" height="72.6971" fill="white"/>
</clipPath>
</defs>
</svg>
