<svg width="56" height="73" viewBox="0 0 56 73" fill="none" xmlns="http://www.w3.org/2000/svg">
<g clip-path="url(#clip0_5952_22459)">
<path d="M27.1041 72.2124C20.3797 68.1838 14.7002 63.0041 10.2324 56.8249C6.11286 51.1303 3.18983 44.8147 1.539 38.06L1.38755 37.4693L0.857465 34.9097C-0.323863 28.473 -0.293573 21.9 0.902901 15.3875L1.09979 14.3425L2.12966 14.1305C2.20539 14.1154 9.03589 12.6766 15.1243 9.26888C23.7873 4.39212 26.7104 1.31763 26.7407 1.28734L27.9068 0L29.0579 1.2722C29.0882 1.30249 31.9961 4.37697 40.6743 9.25373C46.7627 12.6614 53.5932 14.1002 53.6537 14.1154L54.6836 14.3274L54.8805 15.3724C56.0921 21.8849 56.1073 28.4427 54.9259 34.8946L54.7593 35.8185L54.2444 38.06C52.5936 44.8147 49.6705 51.1303 45.551 56.8249C41.0832 63.0041 35.4189 68.1838 28.6944 72.2124L27.9068 72.6971L27.1041 72.2124Z" fill="black"/>
<path d="M53.5656 15.3967C53.5656 15.3967 46.4322 13.9276 40.0257 10.3382C30.8023 5.18879 27.9096 2.02344 27.9096 2.02344C27.9096 2.02344 25.0168 5.18879 15.8085 10.3382C9.40209 13.9124 2.26868 15.3967 2.26868 15.3967C0.951048 22.4544 1.1025 29.5423 2.60188 36.2819H53.2475C54.7166 29.5272 54.8681 22.4544 53.5656 15.3967Z" fill="#FFB300"/>
<path d="M27.9053 71.3118C41.2331 63.3454 50.0173 50.896 53.0766 37.0078H2.71875C5.79323 50.896 14.5623 63.3454 27.9053 71.3118Z" fill="#8E001C"/>
<path d="M9.82339 45.9302C9.82339 44.2187 9.82339 43.9007 9.80825 43.5372C9.7931 43.1586 9.70223 42.9768 9.3236 42.886C9.23273 42.8708 9.03584 42.8557 8.88439 42.8557C8.76323 42.8557 8.6875 42.8254 8.6875 42.7497C8.6875 42.6739 8.76323 42.6436 8.92982 42.6436C9.53563 42.6436 10.2323 42.6739 10.4746 42.6739C10.8533 42.6739 11.7165 42.6436 12.0649 42.6436C12.7767 42.6436 13.534 42.7042 14.1398 43.1283C14.4578 43.3403 14.9122 43.9158 14.9122 44.6731C14.9122 45.5061 14.5638 46.2785 13.428 47.2024C14.4275 48.4594 15.2151 49.4741 15.8815 50.1708C16.5176 50.8221 16.9719 50.8978 17.1537 50.9432C17.2748 50.9735 17.3809 50.9735 17.4717 50.9735C17.5626 50.9735 17.608 51.0038 17.608 51.0644C17.608 51.1553 17.5323 51.1704 17.396 51.1704H16.3207C15.6846 51.1704 15.412 51.1098 15.1091 50.9584C14.6244 50.7009 14.2004 50.1708 13.5643 49.2924C13.1099 48.6714 12.595 47.899 12.4435 47.7324C12.3829 47.6719 12.3224 47.6567 12.2466 47.6567L11.2622 47.6264C11.2016 47.6264 11.1713 47.6567 11.1713 47.7173V47.8687C11.1713 48.9138 11.1713 49.8073 11.2319 50.2768C11.2622 50.61 11.3379 50.8524 11.6711 50.8978C11.8377 50.9129 12.0952 50.9432 12.2315 50.9432C12.3224 50.9432 12.3678 50.9735 12.3678 51.0341C12.3678 51.1098 12.2921 51.1401 12.1406 51.1401C11.4894 51.1401 10.6564 51.1098 10.4746 51.1098C10.2626 51.1098 9.55078 51.1401 9.09642 51.1401C8.94497 51.1401 8.86924 51.1098 8.86924 51.0341C8.86924 50.9735 8.91468 50.9432 9.05099 50.9432C9.21758 50.9432 9.35389 50.9129 9.45991 50.8978C9.68708 50.8524 9.74767 50.61 9.7931 50.2768C9.85368 49.8073 9.85368 48.9138 9.85368 47.8687V45.9302H9.82339ZM11.1562 46.8237C11.1562 46.9449 11.1865 46.9903 11.2622 47.0206C11.5045 47.0963 11.8377 47.1266 12.1255 47.1266C12.5798 47.1266 12.7161 47.0812 12.9282 46.9297C13.2614 46.6874 13.5946 46.1573 13.5946 45.2335C13.5946 43.6281 12.5344 43.1737 11.868 43.1737C11.5802 43.1737 11.3834 43.1889 11.2773 43.2192C11.2016 43.2494 11.1713 43.2797 11.1713 43.3706V46.8237H11.1562ZM17.1082 46.9146C17.1082 44.9911 18.3804 42.4922 21.773 42.4922C24.59 42.4922 26.3317 44.1279 26.3317 46.7177C26.3317 49.3075 24.5294 51.3521 21.667 51.3521C18.4259 51.337 17.1082 48.9138 17.1082 46.9146ZM24.7566 47.1266C24.7566 44.5974 23.3026 43.0374 21.4549 43.0374C20.1524 43.0374 18.6834 43.7644 18.6834 46.5663C18.6834 48.9138 19.9858 50.7766 22.1516 50.7766C22.924 50.7766 24.7566 50.398 24.7566 47.1266ZM28.0885 42.7951C28.1188 42.5982 28.1946 42.5073 28.2854 42.5073C28.3763 42.5073 28.4369 42.5679 28.5883 42.8557L31.6628 49.1258L34.7373 42.7799C34.8282 42.5982 34.8887 42.5073 34.9796 42.5073C35.0856 42.5073 35.1462 42.6133 35.1765 42.8557L36.2064 49.7619C36.3124 50.4737 36.4184 50.8069 36.7668 50.8978C37.0999 51.0038 37.3271 51.0038 37.4634 51.0038C37.5694 51.0038 37.6452 51.0189 37.6452 51.0795C37.6452 51.1704 37.5089 51.2007 37.3574 51.2007C37.0697 51.2007 35.5248 51.1704 35.0705 51.1401C34.813 51.1098 34.7373 51.0795 34.7373 51.019C34.7373 50.9584 34.7827 50.9281 34.8585 50.8978C34.919 50.8675 34.9645 50.7312 34.919 50.4131L34.2375 45.5061H34.1921L31.7385 50.5343C31.4811 51.0644 31.4205 51.1704 31.3145 51.1704C31.2085 51.1704 31.1024 50.9432 30.9207 50.61C30.6481 50.0951 29.7545 48.3685 29.6182 48.0505C29.5122 47.8082 28.8458 46.4754 28.452 45.6424H28.4066L27.8159 50.0497C27.7856 50.2465 27.7856 50.398 27.7856 50.5797C27.7856 50.7918 27.9371 50.8978 28.1188 50.9432C28.3157 50.9887 28.4823 51.0038 28.5883 51.0038C28.6792 51.0038 28.7549 51.0341 28.7549 51.0795C28.7549 51.1855 28.6489 51.2007 28.4823 51.2007C28.0128 51.2007 27.4979 51.1704 27.301 51.1704C27.089 51.1704 26.5437 51.2007 26.1802 51.2007C26.0742 51.2007 25.9834 51.1855 25.9834 51.0795C25.9834 51.0189 26.0439 51.0038 26.1651 51.0038C26.256 51.0038 26.3317 51.0038 26.4983 50.9735C26.8163 50.9129 26.9072 50.4586 26.9678 50.0799L28.0885 42.7951Z" fill="#1D1D1B"/>
<path d="M40.4665 48.2997C40.406 48.2997 40.3908 48.33 40.3605 48.3905L39.7547 49.9353C39.6336 50.2231 39.5881 50.4957 39.5881 50.6169C39.5881 50.8138 39.6941 50.9652 40.0425 50.9652H40.2091C40.3454 50.9652 40.3757 50.9804 40.3757 51.0561C40.3757 51.147 40.3151 51.1621 40.1788 51.1621C39.8153 51.1621 39.3307 51.1318 38.9823 51.1318C38.8612 51.1318 38.2402 51.1621 37.6495 51.1621C37.4981 51.1621 37.4375 51.1318 37.4375 51.0561C37.4375 50.9955 37.4829 50.9652 37.5738 50.9652C37.6798 50.9652 37.8313 50.9501 37.9221 50.9349C38.4371 50.8744 38.6491 50.4806 38.8763 49.9202L41.7085 42.9231C41.8448 42.5899 41.9053 42.4688 42.0265 42.4688C42.1325 42.4688 42.1931 42.5748 42.3143 42.8322C42.5869 43.4532 44.3892 47.9665 45.1161 49.6779C45.5402 50.6926 45.8734 50.8441 46.1157 50.9046C46.2823 50.9349 46.4489 50.9501 46.5852 50.9501C46.6761 50.9501 46.7367 50.9652 46.7367 51.041C46.7367 51.1318 46.6307 51.147 46.2217 51.147C45.8128 51.147 44.995 51.147 44.0863 51.1167C43.8894 51.1015 43.7531 51.1015 43.7531 51.0258C43.7531 50.9652 43.7985 50.9349 43.9045 50.9198C43.9802 50.8895 44.056 50.7986 44.0105 50.6623L43.1018 48.33C43.0867 48.2694 43.0412 48.2542 42.9958 48.2542H40.4665V48.2997ZM42.7686 47.7393C42.8292 47.7393 42.8292 47.709 42.8292 47.6787L41.8145 44.9071C41.7993 44.8617 41.7842 44.8011 41.7539 44.8011C41.7236 44.8011 41.6933 44.8617 41.6933 44.9071L40.6483 47.6787C40.6331 47.7241 40.6483 47.7544 40.6937 47.7544H42.7686V47.7393Z" fill="#1D1D1B"/>
<path d="M10.1242 45.6645C10.1242 43.9531 10.1242 43.6351 10.109 43.2716C10.0939 42.893 10.003 42.7112 9.62438 42.6203C9.53351 42.6052 9.33662 42.59 9.18517 42.59C9.06401 42.59 8.98828 42.5749 8.98828 42.484C8.98828 42.4083 9.06401 42.378 9.2306 42.378C9.82127 42.378 10.5331 42.4083 10.7754 42.4083C11.154 42.4083 12.0173 42.378 12.3657 42.378C13.0775 42.378 13.8348 42.4386 14.4406 42.8627C14.7586 43.0747 15.213 43.6502 15.213 44.4075C15.213 45.2405 14.8646 46.0129 13.7287 46.9367C14.7283 48.1938 15.5159 49.2085 16.1823 49.9052C16.8184 50.5564 17.2727 50.6322 17.4545 50.6776C17.5756 50.7079 17.6816 50.7079 17.7725 50.7079C17.8634 50.7079 17.9088 50.7382 17.9088 50.7988C17.9088 50.8896 17.8331 50.9048 17.6968 50.9048H16.6215C15.9854 50.9048 15.7128 50.8442 15.4099 50.6927C14.9252 50.4353 14.5011 49.9052 13.865 49.0268C13.4107 48.4058 12.8957 47.6334 12.7443 47.4668C12.6837 47.4062 12.6231 47.3911 12.5474 47.3911H11.5478C11.4872 47.3911 11.457 47.4062 11.457 47.482V47.6334C11.457 48.6784 11.457 49.572 11.5175 50.0566C11.5478 50.3898 11.6236 50.6322 11.9567 50.6776C12.1233 50.7079 12.3808 50.723 12.5171 50.723C12.608 50.723 12.6534 50.7533 12.6534 50.8139C12.6534 50.8896 12.5777 50.9199 12.4262 50.9199C11.775 50.9199 10.942 50.8896 10.7603 50.8896C10.5482 50.8896 9.83641 50.9199 9.38206 50.9199C9.2306 50.9199 9.15488 50.8896 9.15488 50.8139C9.15488 50.7533 9.20031 50.723 9.33662 50.723C9.50322 50.723 9.63953 50.6927 9.74554 50.6776C9.97272 50.6322 10.0333 50.3898 10.0787 50.0566C10.1393 49.5871 10.1393 48.6936 10.1393 47.6486L10.1242 45.6645ZM11.457 46.5581C11.457 46.6793 11.4721 46.7247 11.563 46.755C11.8053 46.8307 12.1385 46.861 12.4262 46.861C12.8806 46.861 13.0169 46.8156 13.2289 46.6641C13.5621 46.4218 13.8953 45.8917 13.8953 44.9678C13.8953 43.3625 12.8352 42.9081 12.1688 42.9081C11.881 42.9081 11.6841 42.9232 11.5781 42.9535C11.5024 42.9838 11.4721 43.0141 11.4721 43.1201V46.5581H11.457ZM17.409 46.6641C17.409 44.7407 18.6812 42.2417 22.0738 42.2417C24.8908 42.2417 26.6325 43.8774 26.6325 46.4672C26.6325 49.0571 24.8302 51.1017 21.9526 51.1017C18.7115 51.0865 17.409 48.6481 17.409 46.6641ZM25.0422 46.8761C25.0422 44.3469 23.5883 42.7869 21.7406 42.7869C20.4381 42.7869 18.969 43.5139 18.969 46.3158C18.969 48.6633 20.2715 50.5262 22.4372 50.5262C23.2248 50.511 25.0422 50.1324 25.0422 46.8761ZM28.3893 42.5295C28.4196 42.3326 28.4953 42.2417 28.5862 42.2417C28.6771 42.2417 28.7377 42.3023 28.8891 42.59L31.9636 48.8602L35.0381 42.4992C35.1289 42.3174 35.1895 42.2266 35.2804 42.2266C35.3864 42.2266 35.447 42.3326 35.4773 42.5749L36.5072 49.4811C36.6132 50.193 36.7192 50.5261 37.0675 50.617C37.4007 50.723 37.6279 50.723 37.7642 50.723C37.8702 50.723 37.946 50.7382 37.946 50.7988C37.946 50.8896 37.8096 50.9199 37.6582 50.9199C37.3704 50.9199 35.8256 50.9048 35.3713 50.8593C35.1138 50.8442 35.0381 50.7988 35.0381 50.7382C35.0381 50.6776 35.0835 50.6473 35.1592 50.617C35.2198 50.5867 35.2653 50.4504 35.2198 50.1324L34.5383 45.2253H34.4928L32.0393 50.2535C31.7819 50.7836 31.7213 50.8896 31.6152 50.8896C31.5092 50.8896 31.4032 50.6625 31.2215 50.3293C30.9489 49.8143 30.0553 48.0878 29.919 47.7697C29.813 47.5274 29.1466 46.1946 28.7528 45.3465H28.7074L28.1167 49.7537C28.0864 49.9506 28.0864 50.1021 28.0864 50.2838C28.0864 50.4959 28.2379 50.6019 28.4196 50.6473C28.6165 50.6927 28.7831 50.7079 28.8891 50.7079C28.98 50.7079 29.0557 50.723 29.0557 50.7836C29.0557 50.8896 28.9497 50.9048 28.7831 50.9048C28.3136 50.9048 27.7987 50.8745 27.6018 50.8745C27.3897 50.8745 26.8445 50.9048 26.481 50.9048C26.375 50.9048 26.2841 50.8745 26.2841 50.7836C26.2841 50.723 26.3447 50.7079 26.4659 50.7079C26.5567 50.7079 26.6325 50.7079 26.7991 50.6776C27.1171 50.617 27.208 50.1627 27.2686 49.784L28.3893 42.5295Z" fill="#FFB300"/>
<path d="M40.7634 48.0575C40.7028 48.0575 40.6877 48.0726 40.6574 48.1483L40.0516 49.6932C39.9456 49.9809 39.885 50.2535 39.885 50.3747C39.885 50.5716 39.991 50.723 40.3394 50.723H40.506C40.6423 50.723 40.6726 50.7382 40.6726 50.8139C40.6726 50.9048 40.612 50.9199 40.4757 50.9199C40.1122 50.9199 39.6275 50.8896 39.2792 50.8896C39.158 50.8896 38.5371 50.9199 37.9464 50.9199C37.795 50.9199 37.7344 50.8896 37.7344 50.8139C37.7344 50.7533 37.7798 50.723 37.8707 50.723C37.9767 50.723 38.1282 50.7079 38.219 50.6927C38.734 50.6322 38.946 50.2384 39.1732 49.678L42.0053 42.6809C42.1416 42.3477 42.2022 42.2266 42.3234 42.2266C42.4294 42.2266 42.49 42.3326 42.6111 42.5901C42.8838 43.211 44.686 47.7243 45.413 49.4357C45.8371 50.4504 46.1703 50.617 46.4126 50.6625C46.5792 50.6927 46.7458 50.7079 46.8821 50.7079C46.973 50.7079 47.0335 50.723 47.0335 50.7988C47.0335 50.8896 46.9275 50.9048 46.5186 50.9048C46.1097 50.9048 45.2918 50.9048 44.3831 50.8745C44.1862 50.8593 44.0499 50.8593 44.0499 50.7836C44.0499 50.723 44.0954 50.6927 44.2014 50.6776C44.2771 50.6473 44.3528 50.5564 44.3074 50.4201L43.3987 48.0878C43.3835 48.0272 43.3381 48.012 43.2927 48.012H40.7634V48.0575ZM43.0655 47.4971C43.1261 47.4971 43.1261 47.4668 43.1261 47.4365L42.1113 44.6649C42.0962 44.6195 42.0811 44.5589 42.0508 44.5589C42.0205 44.5589 41.9902 44.6195 41.9902 44.6649L40.9452 47.4365C40.93 47.482 40.9452 47.5123 40.9906 47.5123H43.0655V47.4971Z" fill="#FFB300"/>
<path d="M23.8954 57.7435C23.8954 58.2584 24.2589 58.94 25.1525 58.94C25.4705 58.94 25.7886 58.8491 25.9552 58.6522C25.9703 58.6371 25.9855 58.6068 25.9855 58.5916C25.9855 58.5613 25.9552 58.531 25.94 58.531C25.9097 58.531 25.8794 58.5613 25.8189 58.6068C25.7431 58.6371 25.622 58.6825 25.4099 58.6825C25.1979 58.6825 24.5921 58.4553 24.5921 57.5163C24.5921 56.9862 24.8798 56.5925 25.3342 56.5925C25.8037 56.5925 26.2732 57.0771 26.2732 58.1676C26.2732 59.6366 25.3191 60.6514 24.683 61.03C24.6527 61.0603 24.6072 61.0906 24.6072 61.136C24.6072 61.1663 24.6375 61.1966 24.6678 61.1966C24.7133 61.1966 24.7435 61.1966 24.7738 61.1663C25.5311 60.8028 27.0305 59.7124 27.0305 57.9858C27.0305 57.0468 26.4852 56.3047 25.4857 56.3047C24.5164 56.3047 23.8954 56.9105 23.8954 57.7435ZM20.5938 57.4254C20.5938 57.4557 20.624 57.486 20.6392 57.486C20.6695 57.486 20.6998 57.4709 20.7301 57.4557C20.8664 57.3951 21.3207 57.1528 21.4419 57.1528C21.5328 57.1528 21.5328 57.2285 21.5328 57.38V59.1823C21.5328 59.7729 21.5328 60.303 21.5025 60.5756C21.4873 60.7725 21.457 60.8634 21.2601 60.9088C21.1541 60.9391 20.8361 60.9543 20.7755 60.9543C20.7452 60.9543 20.7301 60.9694 20.7301 61.0149C20.7301 61.0603 20.7603 61.0754 20.8361 61.0754C21.2299 61.0754 21.7448 61.0603 21.8811 61.0603C22.0477 61.0603 22.4415 61.0754 22.911 61.0754C22.9716 61.0754 23.0018 61.0603 23.0018 61.0149C23.0018 60.9694 22.9716 60.9543 22.9413 60.9543C22.8958 60.9543 22.6232 60.9391 22.5323 60.924C22.3355 60.8785 22.3052 60.7877 22.29 60.5908C22.2597 60.3182 22.2597 59.7881 22.2597 59.1974V58.0464C22.2597 57.0922 22.29 56.4864 22.29 56.441C22.29 56.3804 22.2749 56.3047 22.2143 56.3047C22.1689 56.3047 22.1083 56.3501 22.0477 56.3804C21.8357 56.547 20.6543 57.3194 20.624 57.3346C20.624 57.3497 20.5938 57.38 20.5938 57.4254ZM27.5454 60.9694C27.5454 61.0149 27.5908 61.0603 27.6363 61.0603H30.0444C30.4381 61.0603 30.529 61.0451 30.5745 60.8785C30.635 60.6665 30.7562 60.091 30.7562 60.0001C30.7562 59.9395 30.7562 59.879 30.7108 59.879C30.6805 59.879 30.6502 59.9093 30.635 59.985C30.5593 60.2727 30.3624 60.4848 29.9384 60.5302C29.7112 60.5605 28.9842 60.5605 28.8782 60.5605H28.4541C28.4238 60.5605 28.4087 60.5454 28.439 60.5151C29.2265 59.879 30.5442 58.8339 30.5442 57.6223C30.5442 56.8954 30.0898 56.3047 28.9994 56.3047C28.4541 56.3047 28.1361 56.4107 27.8937 56.547C27.8332 56.5924 27.818 56.6227 27.818 56.6682C27.818 56.8499 27.8483 57.3649 27.8483 57.4103C27.8483 57.486 27.8786 57.5315 27.9089 57.5315C27.9695 57.5315 27.9846 57.4709 27.9846 57.4103C27.9846 57.2437 28.0906 56.9559 28.2421 56.8196C28.4238 56.653 28.6359 56.5925 28.8933 56.5925C29.1962 56.5925 29.7263 56.7893 29.7263 57.7738C29.7263 59.0763 28.4996 60.0456 27.6514 60.8028C27.6211 60.8634 27.5454 60.9088 27.5454 60.9694ZM31.4226 57.4557C31.4226 57.5163 31.4226 57.5466 31.468 57.5466C31.4983 57.5466 31.5286 57.5163 31.5286 57.4709C31.5437 57.3649 31.6195 57.168 31.7255 57.0922C31.8769 56.9862 32.1344 56.9862 32.301 56.9862H33.8913C33.0431 58.4099 32.2556 60.2425 32.089 60.8331C32.0587 60.9391 32.0435 61.03 32.0435 61.0906C32.0435 61.1512 32.0587 61.1663 32.1344 61.1663C32.407 61.1663 32.9068 60.9088 32.9068 60.7877C32.9068 60.712 32.8917 60.6665 32.9068 60.5605C32.9977 59.7729 33.9518 57.3043 34.4668 56.5773C34.4819 56.547 34.5122 56.5016 34.5122 56.4713C34.5122 56.441 34.4819 56.4259 34.3608 56.4259H32.407C31.7558 56.4259 31.6195 56.3653 31.574 56.3653C31.5437 56.3653 31.5135 56.3956 31.5135 56.4561C31.5135 56.5167 31.4226 57.2134 31.4226 57.4557Z" fill="black"/>
<path d="M24.079 57.5638C24.079 58.0787 24.4425 58.7603 25.3361 58.7603C25.6541 58.7603 25.9722 58.6694 26.1388 58.4725C26.1539 58.4574 26.169 58.4271 26.169 58.4119C26.169 58.3816 26.1388 58.3513 26.1236 58.3513C26.0933 58.3513 26.063 58.3816 26.0024 58.4271C25.9267 58.4574 25.8056 58.5028 25.5935 58.5028C25.3815 58.5028 24.7757 58.2756 24.7757 57.3366C24.7757 56.8065 25.0634 56.4128 25.5178 56.4128C25.9873 56.4128 26.4417 56.8974 26.4417 57.9879C26.4417 59.4569 25.4875 60.4717 24.8514 60.8503C24.8211 60.8806 24.7757 60.9109 24.7757 60.9563C24.7757 60.9866 24.806 61.0169 24.8363 61.0169C24.8817 61.0169 24.912 61.0169 24.9423 60.9866C25.6995 60.6231 27.1989 59.5327 27.1989 57.8061C27.1989 56.8671 26.6537 56.125 25.6541 56.125C24.7151 56.125 24.079 56.7308 24.079 57.5638ZM20.7773 57.2457C20.7773 57.276 20.8076 57.3063 20.8228 57.3063C20.8531 57.3063 20.8834 57.2912 20.9137 57.276C21.05 57.2155 21.5043 56.9731 21.6255 56.9731C21.7163 56.9731 21.7163 57.0489 21.7163 57.2003V59.0026C21.7163 59.5933 21.7163 60.1233 21.6861 60.396C21.6709 60.5928 21.6406 60.6837 21.4437 60.7291C21.3377 60.7594 21.0197 60.7746 20.9591 60.7746C20.9288 60.7746 20.9137 60.7897 20.9137 60.8352C20.9137 60.8806 20.9439 60.8957 21.0197 60.8957C21.4134 60.8957 21.9284 60.8806 22.0647 60.8806C22.2313 60.8806 22.6251 60.8957 23.0946 60.8957C23.1551 60.8957 23.1854 60.8806 23.1854 60.8352C23.1854 60.7897 23.1551 60.7746 23.1249 60.7746C23.0794 60.7746 22.8068 60.7594 22.7159 60.7443C22.519 60.6989 22.4888 60.608 22.4736 60.4111C22.4433 60.1385 22.4433 59.6084 22.4433 59.0177V57.8667C22.4433 56.9126 22.4736 56.3067 22.4736 56.2613C22.4736 56.2007 22.4585 56.125 22.3979 56.125C22.3524 56.125 22.2919 56.1704 22.2313 56.2007C22.0193 56.3673 20.8379 57.1397 20.8076 57.1549C20.8076 57.1852 20.7773 57.2155 20.7773 57.2457ZM27.7441 60.7897C27.7441 60.8352 27.7896 60.8806 27.835 60.8806H30.2431C30.6369 60.8806 30.7278 60.8655 30.7732 60.6989C30.8338 60.4868 30.9549 59.9113 30.9549 59.8204C30.9549 59.7599 30.9549 59.6993 30.9095 59.6993C30.8792 59.6993 30.8489 59.7296 30.8338 59.8053C30.758 60.093 30.5612 60.3051 30.1371 60.3505C29.9099 60.3808 29.1829 60.396 29.0769 60.396H28.6529C28.6226 60.396 28.6074 60.3808 28.6377 60.3505C29.4253 59.7144 30.7429 58.6694 30.7429 57.4578C30.7429 56.7308 30.2885 56.1401 29.1981 56.1401C28.6529 56.1401 28.3348 56.2462 28.0925 56.3825C28.0319 56.4279 28.0168 56.443 28.0168 56.5036C28.0168 56.6854 28.0471 57.2003 28.0471 57.2457C28.0471 57.3215 28.0773 57.3669 28.1076 57.3669C28.1682 57.3669 28.1834 57.3063 28.1834 57.2457C28.1834 57.0791 28.2894 56.7914 28.4408 56.6551C28.6226 56.4885 28.8346 56.4279 29.0921 56.4279C29.395 56.4279 29.9251 56.6248 29.9251 57.6092C29.9251 58.9117 28.6983 59.881 27.8502 60.6383C27.8047 60.6837 27.7441 60.7443 27.7441 60.7897ZM31.6213 57.276C31.6213 57.3366 31.6213 57.3669 31.6668 57.3669C31.6971 57.3669 31.7273 57.3366 31.7273 57.2912C31.7425 57.1852 31.8182 56.9883 31.9242 56.9125C32.0757 56.8065 32.3332 56.8065 32.4998 56.8065H34.09C33.2419 58.2302 32.4543 60.0628 32.2877 60.6534C32.2574 60.7594 32.2423 60.8503 32.2423 60.9109C32.2423 60.9715 32.2574 60.9866 32.3332 60.9866C32.6058 60.9866 33.1056 60.7292 33.1056 60.608C33.1056 60.5323 33.0904 60.4868 33.1056 60.3808C33.1964 59.5933 34.1506 57.1246 34.6655 56.3976C34.6807 56.3673 34.711 56.3219 34.711 56.2916C34.711 56.2613 34.6807 56.2462 34.5595 56.2462H32.6058C31.9545 56.2462 31.8182 56.1856 31.7728 56.1856C31.7425 56.1856 31.7122 56.2159 31.7122 56.2765C31.7122 56.337 31.6213 57.0489 31.6213 57.276Z" fill="#BDBBBB"/>
<path d="M48.6435 31.9924C48.5072 31.8107 48.3406 31.6289 48.1892 31.432C47.4622 30.5536 45.8417 28.3727 45.8417 28.3727C45.8417 21.3302 44.5695 20.0125 43.2821 18.9069C42.1311 17.9376 40.3137 17.4378 38.3599 17.1349C37.8299 17.0592 37.2392 17.0138 36.5728 17.0138C35.9216 17.0138 35.2703 17.0441 34.6191 17.0895C34.089 17.1198 24.911 17.4984 21.9577 17.0138C20.6703 16.8017 18.8983 17.0441 17.8382 17.1804C17.3535 17.2409 14.7031 17.665 14.385 17.1501C14.3245 17.0592 14.3396 16.8472 14.3548 16.62C14.385 16.2414 14.5516 15.8021 14.2487 15.3932C13.855 14.8329 13.4158 14.2422 13.1734 14.2422C13.0977 14.2422 12.4465 14.7874 12.2799 14.9389C12.0072 15.2115 11.9315 15.6507 11.9467 16.1656C11.9618 16.4837 11.9315 16.4231 11.9164 16.4382C11.8709 16.4837 10.1898 16.4837 9.75061 16.514C9.75061 16.4231 9.73546 15.9839 9.4477 15.575C9.26596 15.3024 9.11451 14.4088 9.11451 14.4088C9.11451 14.4088 8.5087 15.469 8.29666 15.7567C8.06949 16.0748 7.82716 16.3928 7.69086 16.7714C7.63027 16.9077 7.63027 17.0895 7.61513 17.2561C7.59998 17.3772 7.58484 17.6196 7.5394 17.665C7.22135 17.9073 7.03961 18.2254 7.00932 18.6343C6.99418 18.7555 7.02447 18.9069 7.0699 19.1038C7.10019 19.225 7.13048 19.4067 7.13048 19.4976C7.10019 19.5127 7.0699 19.543 7.03961 19.5582C6.75185 19.7399 6.35808 19.9974 6.38837 20.4517C6.4338 21.1333 6.58525 21.4059 6.79729 21.7845C6.85787 21.8905 6.91845 21.9965 6.99418 22.1177C7.08505 22.2994 7.13048 22.5721 7.17592 22.8144C7.2365 23.1779 6.9033 23.5716 7.13048 23.7837C7.43339 24.0714 8.20579 24.1017 8.53899 24.1017C8.62986 24.1017 8.9782 24.0866 9.06907 24.0866C9.20538 24.0866 9.29625 24.0866 9.38712 24.1017C10.0384 24.2229 10.6745 24.2835 11.3106 24.3289C12.1738 24.4046 12.9917 24.4652 13.8095 24.7075C15.324 25.1468 16.8083 25.7677 18.3682 26.6007C18.4591 26.6461 18.5348 26.6916 18.6106 26.7219C19.1861 27.0096 19.3072 26.9793 19.5799 27.7669C19.8525 28.5544 19.3527 34.7488 19.2467 35.3849C19.0801 36.4148 18.7469 37.0358 18.2168 37.2326C17.505 37.4901 17.2021 38.0505 16.9143 38.5957C16.8234 38.7775 16.8386 38.9895 16.7326 39.1561C16.7326 39.1561 16.5054 39.4136 16.5811 39.4741C16.6568 39.5347 17.3838 39.3681 17.3838 39.3681C17.6261 39.3833 17.3687 39.5196 17.611 39.5196C18.2168 39.5196 18.9589 39.5196 19.7162 39.0804C20.0342 39.0804 19.8222 39.4893 20.1099 39.4287C21.0187 39.2621 21.0944 38.5654 21.2004 37.9142C21.3821 36.7934 21.3518 36.5965 21.4882 36.5057C21.6093 36.3997 22.0182 36.5663 22.1243 36.4451C22.2 36.3542 22.1091 35.5364 22.1545 34.8094C22.2151 33.7644 22.518 32.5376 22.8209 31.5229L22.8361 31.4775C22.8967 31.2503 23.0027 30.9777 23.1238 30.6899C23.4116 29.9175 23.7751 28.9785 23.7296 28.2212C24.0477 28.2818 24.1083 28.297 24.29 28.5544C24.3203 28.5999 24.3657 28.6756 24.4263 28.7665C24.7747 29.342 24.9716 29.5086 25.1987 29.5086C25.229 29.5086 25.2442 29.5086 25.2745 29.4934C25.6531 29.3874 25.8651 29.0694 26.0772 28.6453C26.2892 28.2212 26.5164 27.7972 26.8647 27.7063H26.9101C27.1979 27.7063 27.7128 27.9638 28.0157 28.4181C28.667 29.4177 29.2122 28.721 29.2728 28.6302C29.3485 28.509 29.8635 27.6609 29.9998 27.464C30.1512 27.2216 30.2572 27.2065 30.2875 27.2065H30.3027C30.6207 27.2519 31.9838 28.9028 32.4684 28.7968C32.9379 28.7513 33.468 26.9339 33.7558 26.9339C33.7709 26.9339 33.7861 26.9339 33.8012 26.949C33.877 27.0096 34.0284 27.2519 34.1344 27.4185C34.4979 27.9638 34.5736 28.3424 34.8765 28.3424C34.9674 28.3424 35.134 28.2667 35.2249 28.0243C35.2552 27.9638 35.3612 27.6911 35.3763 27.6609C35.3915 27.676 35.6338 28.4938 36.2245 27.782C36.2245 27.7669 36.2093 27.7517 36.2093 27.7517C36.2093 27.7517 36.1942 27.7517 36.1942 27.7366L36.2093 27.7517C36.285 27.57 37.3906 28.6453 37.9056 29.0694C38.3902 29.5086 38.784 29.8872 38.8143 29.9175C39.9502 30.9322 41.3435 32.1741 41.6313 33.5524C41.7828 34.3399 41.7525 35.2335 41.5253 36.0967C41.4799 36.2785 41.4344 36.3845 41.389 36.4148C41.3435 36.4451 41.2224 36.4451 41.0558 36.4602H40.8135C40.4348 36.4905 40.1622 36.8994 39.935 37.2629C39.829 37.4295 39.6927 37.5658 39.617 37.7021C39.5413 37.8233 39.6624 38.0353 39.723 38.0808C39.7987 38.1262 40.4954 38.2928 40.7074 38.2928C40.768 38.2928 40.8286 38.2928 40.874 38.2777C41.0255 38.3382 41.2072 38.3685 41.4041 38.3685C42.0099 38.3685 42.7672 38.1111 42.9944 37.687C43.3579 36.9752 43.6002 36.1876 43.8577 35.4304C43.8879 35.3395 43.9031 35.2638 43.9334 35.1729C43.994 35.0063 44.0545 34.8246 44.1303 34.6277C44.4029 33.931 44.8421 33.1889 44.6452 32.5073C44.5392 32.1438 44.1757 31.7955 43.9485 31.4926C43.7516 31.22 42.9792 30.2053 42.7369 29.8569C43.4639 30.5536 45.463 31.5835 45.9628 32.7951C46.1446 33.2192 45.9628 34.9912 45.9174 35.4758C45.9023 35.703 45.8871 35.9302 45.8871 36.1573C45.872 36.8843 45.6599 37.0206 44.933 37.0963C44.2969 37.1569 44.0091 38.0959 43.8577 38.5957C43.8425 38.626 43.8425 38.6563 43.8274 38.6714L43.7516 38.8986L43.994 38.9441C44.0848 38.9592 44.1909 38.9743 44.312 39.0046C44.7664 39.0955 45.5388 39.3681 46.0689 39.3681C46.705 39.3681 47.1593 39.2167 47.4471 38.8986C47.8106 38.5048 47.962 37.7779 48.0832 37.1569C48.1286 36.9146 48.3861 36.0665 48.4921 35.7636C49.0676 33.8401 49.6583 33.098 48.6435 31.9924ZM7.8726 22.6781C7.64542 22.8144 7.56969 22.4358 7.56969 22.4358C7.50911 22.2843 7.50911 22.1177 7.58484 22.0571C7.75144 22.1631 7.94832 22.1631 8.00891 22.254C8.08463 22.36 7.99376 22.6024 7.8726 22.6781Z" fill="black"/>
<path d="M20.0182 38.5221C20.0031 38.5372 19.9728 38.5372 19.9728 38.5221L19.9122 38.4464C19.897 38.4312 19.9122 38.4161 19.9425 38.4009L19.9879 38.3706C20.0031 38.3555 20.0334 38.3555 20.0334 38.3706L20.0939 38.4464C20.0939 38.4615 20.0939 38.4767 20.0636 38.4918L20.0182 38.5221ZM37.0414 27.875C36.9809 27.9053 36.9354 27.9053 36.89 27.9204C36.9354 27.9356 36.9657 27.9507 37.0112 27.9507C36.996 27.9204 37.0263 27.8901 37.0414 27.875Z" fill="#BDBBBB"/>
<path d="M36.659 27.8917C36.659 27.8917 36.5682 27.816 36.4925 27.8008C36.4622 27.8008 36.447 27.7857 36.4319 27.7857C36.4016 27.7857 36.3865 27.8008 36.3865 27.8008L36.3562 27.816V27.7857C36.3562 27.7554 36.3865 27.71 36.4622 27.71C36.4925 27.71 36.5076 27.71 36.5379 27.7251C36.6439 27.7554 36.6742 27.8614 36.6742 27.8614L36.6893 27.922L36.659 27.8917ZM35.9019 27.7554C35.9019 27.7251 35.9473 27.6797 36.0079 27.6797C36.023 27.6797 36.0533 27.6797 36.0836 27.6948C36.0987 27.71 36.129 27.71 36.129 27.71L36.1593 27.7251L36.0836 27.7857H36.0684C36.0684 27.7857 36.0382 27.7705 36.023 27.7705H35.917L35.8867 27.7857L35.9019 27.7554Z" fill="black"/>
<path d="M36.0845 27.7098C36.0997 27.7098 36.13 27.725 36.13 27.725L36.0845 27.7553C36.0845 27.7553 36.0543 27.7401 36.0391 27.7401C35.9634 27.725 35.918 27.7401 35.918 27.7401C35.918 27.7401 35.9331 27.6644 36.0845 27.7098Z" fill="black"/>
<path d="M37.538 37.9499C36.599 37.9499 36.4778 36.4202 36.4475 36.1476C36.2204 36.1324 35.978 35.981 35.8115 35.8447C35.8115 35.8447 35.7812 35.8295 35.766 35.8144C35.766 35.9204 35.7812 36.0416 35.7812 36.1627C35.7963 36.3293 35.8266 36.7988 35.8417 36.92V36.9351C35.8569 37.1169 35.9023 37.5107 35.5085 37.7378C35.3874 37.7984 35.2662 37.8287 35.1148 37.8287C34.9936 37.8287 34.8876 37.7984 34.8119 37.7833H34.7664L34.6907 37.7681C34.5847 37.753 34.4484 37.7378 34.3424 37.7378H34.3121C34.1152 37.7378 33.5548 37.7681 33.4639 37.7833H33.4034C33.0853 37.7833 32.8278 37.5258 32.8278 37.5258C32.6612 37.3743 32.6612 37.1169 32.7976 36.92L32.8278 36.8594L32.8733 36.8291C32.9036 36.7988 33.0096 36.7382 33.1459 36.7231C33.2671 36.6474 33.4488 36.5414 33.7214 36.3899C33.4791 35.9204 32.4038 34.2696 33.3428 33.7546C33.6911 33.5729 34.2212 33.376 34.721 33.27C34.721 33.2397 34.7361 33.2094 34.7361 33.1791C34.7513 33.1337 34.7664 33.0125 34.7513 32.9065C34.5998 32.9822 34.4484 33.0277 34.3272 33.0277C34.2818 33.0277 34.2515 33.0277 34.2061 33.0125C33.888 32.9519 33.4791 32.4824 33.4336 32.4067C33.3579 32.3158 33.0853 31.816 32.843 31.3465C32.1614 31.3163 32.1009 31.3011 32.0554 31.286C31.9949 31.2557 31.904 31.2405 31.4648 30.877C31.3133 30.7559 31.2527 30.5893 31.2679 30.4227C31.283 30.2864 31.3739 30.1652 31.4951 30.1046C31.4951 30.1046 31.5102 30.0895 31.5254 30.0895C31.5859 30.0138 31.6768 29.938 31.8434 29.9077L31.8888 29.8926H31.9494C32.0554 29.8926 32.1463 29.938 32.2372 29.9835C32.2372 29.938 32.2523 29.8775 32.2826 29.832C32.3583 29.6654 32.5249 29.5746 32.737 29.5746C32.843 29.5746 32.9641 29.6048 33.1005 29.6654L33.1156 29.6806L33.1307 29.6957C33.1762 29.726 33.1762 29.726 33.1913 29.726C33.2671 29.7412 33.4639 29.8017 33.5245 29.832C33.6457 29.8775 33.7214 29.938 33.9334 30.3167L34.2818 30.6499C34.4332 30.2864 34.615 30.1349 34.6907 30.0592C34.7967 29.9683 34.9027 29.938 35.0239 29.9077C35.0542 29.8926 35.0845 29.8926 35.1148 29.8775C35.1602 29.832 35.2208 29.7866 35.2814 29.7563C35.2814 29.7412 35.2965 29.726 35.2965 29.7109C35.2511 29.6351 35.1905 29.5443 35.1299 29.4685C34.9936 29.2414 35.0088 29.0293 35.0239 28.893V28.8476C35.039 28.4841 35.4934 28.1812 35.4934 28.1812C35.5388 28.1509 35.5994 28.1206 35.6449 28.1055C35.7357 27.9995 35.8872 27.8177 36.0083 27.7268C36.0992 27.636 36.2204 27.5754 36.3415 27.5451C36.4324 27.3482 36.6444 27.2422 36.9473 27.2422C37.0534 27.2422 37.3714 27.2573 37.4774 27.2876C37.7046 27.3179 37.8712 27.4694 37.9469 27.6511C38.1438 27.7117 38.2801 27.8934 38.2953 28.1509L38.371 28.2266C38.4164 28.2721 38.5376 28.4084 38.5679 28.6053C38.689 28.8476 38.6739 29.1202 38.6588 29.2565C38.6588 29.6351 38.5527 29.8623 38.4467 29.9986C38.4316 30.0441 38.4164 30.0895 38.4013 30.1198C38.7648 30.347 38.8859 30.8619 38.9162 31.0588C38.9465 31.1799 39.098 31.6797 39.1737 32.0129C39.2797 32.4824 39.1131 32.9065 39.098 32.9519L39.0828 32.9974L39.0525 33.0428C39.0222 33.0882 38.8708 33.3003 38.7951 33.376C38.6739 33.5275 38.5376 33.588 38.4164 33.6183C38.4619 33.7698 38.4922 33.9364 38.5224 34.103C38.8102 34.4665 38.9768 34.9814 38.9768 35.1631C38.9768 35.2843 38.9465 35.4055 38.9011 35.4963C38.9314 35.5872 38.9465 35.6932 38.9314 35.9507C39.0525 36.087 39.1585 36.2839 39.2797 36.5111C39.2949 36.5414 39.31 36.5565 39.31 36.5565C39.8704 37.7833 38.4619 37.8741 38.3861 37.8438C38.2195 37.9347 37.6289 37.9499 37.538 37.9499Z" fill="black"/>
<path d="M37.4477 27.6319C37.3568 27.6167 37.069 27.6016 36.9782 27.6016C36.5693 27.6016 36.7813 27.8136 36.7813 27.8136C36.7813 27.8136 36.4481 27.859 36.3118 27.9802C36.1755 28.1014 35.918 28.4043 35.918 28.4043C35.918 28.4043 35.812 28.4497 35.7363 28.48C35.6757 28.5254 35.4788 28.6769 35.4485 28.8283C35.4334 28.9343 35.4182 29.0706 35.4939 29.207C35.5848 29.3433 35.7211 29.5402 35.7211 29.5402C35.7211 29.5402 35.7666 29.6159 35.7211 29.6916C35.6908 29.7673 35.6302 29.9794 35.6302 29.9794C35.6302 29.9794 35.4334 30.0854 35.3728 30.146C35.3122 30.2065 35.0244 30.252 34.9639 30.3126C34.8881 30.3731 34.7064 30.5246 34.5852 30.9638C34.4489 31.1001 34.358 31.2516 34.358 31.2516L33.6159 30.4943C33.6159 30.4943 33.5251 30.1914 33.3736 30.146C33.3282 30.1308 32.995 30.0248 32.9193 29.9794C32.6466 29.8733 32.6012 29.9642 32.6466 30.0248C32.7072 30.1005 32.8738 30.1763 32.9193 30.2065C32.9647 30.2368 32.9798 30.5246 32.2832 30.4186C32.2529 30.4186 32.0711 30.2974 31.95 30.252C31.6471 30.146 31.7076 30.4337 31.7682 30.4943C31.8288 30.5549 32.1317 30.8578 32.2074 30.8881C32.268 30.9032 33.1313 30.9487 33.1313 30.9487C33.1313 30.9487 33.7219 32.0543 33.7977 32.1603C33.8885 32.2663 34.2066 32.5843 34.3429 32.5995C34.4792 32.6298 34.8578 32.4783 35.0547 32.13L35.1305 33.5688C35.1305 33.5688 33.7977 33.8717 33.5554 34.0686C33.0556 34.4623 33.934 35.9769 34.2369 36.3858C34.3278 36.5221 34.2672 36.5524 34.2672 36.5524C34.2672 36.5524 33.3282 37.0673 33.3282 37.1128C33.2373 37.0825 33.1616 37.1431 33.1616 37.1431C33.1616 37.1431 33.1161 37.2036 33.1464 37.2339C33.1767 37.2642 33.3282 37.3854 33.4493 37.3702C33.5705 37.3551 34.2369 37.3248 34.3883 37.3248C34.5398 37.3248 34.7367 37.3551 34.8427 37.3702C34.9487 37.3854 35.1607 37.4611 35.3273 37.3702C35.4939 37.2794 35.4788 37.1128 35.4485 36.9613C35.4334 36.7947 35.3879 36.1738 35.3879 36.1738C35.3879 36.1738 35.3728 35.4468 35.3576 35.3559C35.5394 35.3862 35.8271 35.4468 35.8877 35.4165C35.9786 35.3711 36.0695 35.5225 36.0695 35.5225C36.0695 35.5225 36.3724 35.7648 36.5087 35.7345C36.645 35.7043 36.6753 35.6891 36.7358 35.4922C36.7813 35.4165 36.8267 35.4316 36.8267 35.6285C36.8267 35.8254 36.7358 37.5823 37.5688 37.5368C38.0838 37.5217 38.4473 37.2642 38.4473 37.2642C38.4473 37.2642 38.5836 37.4611 38.7956 37.4005C39.3257 37.2036 39.0379 36.7341 38.9925 36.6584C38.9471 36.5827 38.7047 36.0526 38.5533 36.0375C38.5684 35.8103 38.523 35.4771 38.4927 35.3862C38.523 35.3408 38.6139 35.1439 38.6139 35.053C38.6139 34.9621 38.4624 34.4623 38.1746 34.1746C38.1141 33.7051 37.8869 33.0084 37.8869 33.0084C37.8869 33.0084 38.1898 33.1296 38.2807 33.1296C38.3715 33.1447 38.4473 33.0993 38.5078 33.0236L38.7502 32.7206C38.7502 32.7206 38.8865 32.3572 38.8107 31.9937C38.735 31.6302 38.5684 31.0395 38.5684 31.0395C38.5684 31.0395 38.4927 30.464 38.2049 30.3428C37.9172 30.2065 37.8717 30.2217 37.8717 30.2217C37.8717 30.2217 37.7809 30.1005 37.8414 30.0702C37.9172 30.0399 38.008 29.9642 38.0535 29.9339C38.0838 29.9036 38.1292 29.6916 38.1292 29.6916C38.1292 29.6916 38.2958 29.6159 38.2958 29.1312C38.2958 29.1312 38.3412 28.798 38.2201 28.6466C38.2201 28.5103 38.1141 28.4194 38.1141 28.4194L37.9323 28.2225C37.9323 28.2225 37.9626 27.9802 37.8414 27.9499C37.7354 27.9196 37.6446 27.8893 37.6446 27.8893C37.6446 27.8893 37.6294 27.6621 37.4477 27.6319Z" fill="#BDBBBB"/>
<path d="M37.5907 29.0298C37.5756 28.9995 37.5604 28.9844 37.5453 28.9844H37.5301L37.515 28.9995C37.4695 29.045 37.4393 29.0752 37.3787 29.0752C37.3181 29.0752 37.2727 29.0298 37.2727 29.0298C37.2727 29.0298 37.2575 29.1661 37.409 29.1661C37.515 29.1661 37.5907 29.0601 37.5907 29.0601V29.0298ZM33.9559 36.7084C33.5924 36.2086 32.7897 36.1784 32.5171 36.4358C32.5019 36.4207 32.4868 36.4055 32.4716 36.4055C32.3656 36.3147 32.0324 36.1178 31.881 36.0269C31.6386 35.7694 31.5326 35.7089 31.472 35.6786C31.2751 35.5574 30.8814 35.4211 30.5482 35.3454C30.4876 34.6487 30.427 34.4821 30.3967 34.4064C30.3967 34.3912 30.4725 33.7703 30.4573 33.3765C30.6693 33.4068 30.942 33.4522 31.1691 33.4522C31.2903 33.4522 31.3963 33.4371 31.472 33.4068C31.6841 33.3462 32.0476 33.225 32.1839 32.9979L32.2142 32.9524L32.2293 32.8918C32.2444 32.8464 32.3353 32.3921 32.0627 31.9528C31.8658 31.6499 31.3509 31.1047 31.0631 30.8321C31.0783 30.6655 31.0783 30.4989 31.0783 30.4989C31.0934 30.3626 31.048 30.2263 30.8965 30.0597C30.8511 30.0143 30.4876 29.6053 30.3967 29.5599C30.3059 29.4993 30.1393 29.4539 30.0181 29.4539C29.9727 29.4539 29.9272 29.4539 29.8818 29.469C29.5334 29.5448 29.5637 30.0748 29.5789 30.1203C29.5334 30.09 29.488 30.0748 29.4426 30.0597C29.3214 29.9234 29.1548 29.8477 28.9731 29.8174C28.8822 29.7568 28.761 29.6811 28.5944 29.6811H28.5642C28.337 29.6962 28.337 29.7113 28.231 29.8022C28.0644 29.8325 27.9129 29.9385 27.8069 30.0748C27.716 30.1354 27.5949 30.2263 27.504 30.3929C27.4131 30.4686 27.292 30.6049 27.2011 30.8472L27.1708 30.9381C27.0951 31.1501 27.0042 31.3773 27.0648 31.6196V31.6499C26.8679 31.6954 26.5953 31.8165 26.459 32.1043C26.3984 32.2255 26.3227 32.4072 26.2621 32.5586C26.1863 32.5738 25.2171 32.6798 25.2322 33.1342C25.2473 33.2705 25.3079 33.4219 25.4442 33.5128C25.3534 33.6643 25.3534 33.8308 25.4291 33.9672C25.5048 34.0883 25.5957 34.1792 25.7017 34.2095C25.732 34.3306 25.7926 34.4518 25.8683 34.5578C25.9592 34.679 26.0652 34.7699 26.1561 34.8304C25.9743 34.891 25.7774 34.9819 25.5957 35.1182C25.3231 35.2999 24.9293 35.6937 25.2776 36.3147C25.3382 36.4207 25.5048 36.6024 26.3529 37.4354C26.3227 37.4657 25.6563 38.6925 26.7467 38.753C26.989 39.1771 27.8372 38.5713 27.8675 38.5562C27.9281 38.5713 29.0639 38.5713 28.7762 37.6929C28.8519 37.6777 29.2457 37.5717 29.2608 37.5717C29.382 37.6323 29.6698 37.7383 29.8364 37.7535C29.9121 37.7686 30.0332 37.7686 30.1241 37.7686C30.2453 37.7686 30.5179 37.7686 30.6542 37.7383C30.6845 37.7383 30.7299 37.7232 30.7754 37.708C30.8965 37.9049 31.0783 38.1321 31.3206 38.2684C31.6083 38.435 32.2596 38.7228 32.4868 38.8288C32.5322 38.8742 32.9866 39.2528 33.2895 39.2528C34.2588 39.2528 33.9559 38.3744 33.971 38.329C34.077 38.0564 34.2133 37.0719 33.9559 36.7084Z" fill="black"/>
<path d="M30.5637 32.0556C30.5183 32.0101 30.1548 31.9041 29.9882 31.889C29.9276 31.8435 29.761 31.7829 29.761 31.7829C29.761 31.7829 29.9882 31.6012 29.9882 31.48C29.8216 30.6471 29.549 30.5865 29.549 30.5865C29.549 30.5865 29.4581 30.3896 29.2158 30.3593C29.1703 30.1776 28.822 30.1473 28.822 30.1473C28.822 30.1473 28.7311 30.0261 28.5948 30.0412C28.4888 30.0412 28.4585 30.0867 28.4131 30.1473C28.4131 30.1473 28.201 30.117 28.0647 30.3593C28.0647 30.3593 27.8981 30.3896 27.7921 30.6471C27.7921 30.6471 27.671 30.6773 27.5649 30.9651C27.4892 31.162 27.3983 31.3589 27.4438 31.5103C27.4892 31.6618 27.5952 31.8132 27.5952 31.8132C27.5952 31.8132 27.4892 31.9041 27.3529 31.9495C27.2317 31.995 26.9137 32.0101 26.7925 32.2524C26.6562 32.5099 26.5048 32.9794 26.5048 32.9794C26.5048 32.9794 26.429 32.934 26.3382 32.9188C26.2625 32.9037 25.8838 32.9188 25.8081 32.9794C25.7627 33.0097 25.6112 33.0249 25.6112 33.1006C25.6264 33.2823 25.899 33.2066 25.899 33.2066L25.8384 33.5852C25.8384 33.5852 25.7172 33.7064 25.7475 33.7518C25.7778 33.8124 25.8384 33.8276 25.8687 33.8124C25.9141 33.8124 26.005 33.7064 26.005 33.7064C26.005 33.7064 26.005 34.0699 26.1716 34.2819C26.3382 34.4939 26.5199 34.5697 26.5199 34.5697C26.5199 34.5697 26.6411 34.6151 26.7622 34.5697C26.8683 34.5242 27.0803 34.3576 27.0954 34.2971C27.1106 34.2365 27.1712 34.0244 27.1712 34.0244C27.1712 34.0244 27.262 33.6912 27.2923 33.6912C27.3226 33.6761 27.3681 33.7367 27.3681 33.7367V34.4031C27.3681 34.4031 27.0954 34.9029 27.0954 35.0392C26.9591 35.0543 26.3382 34.9937 25.8232 35.3724C25.384 35.6601 25.5355 35.9327 25.6112 36.0842C25.6869 36.2205 27.0046 37.4927 27.05 37.5381C27.0349 37.5836 27.0652 37.6442 27.0046 37.6442H26.8683C26.8683 37.6442 26.6714 37.5684 26.6259 37.6442C26.5502 37.841 26.7622 37.8107 26.7622 37.8562C26.7622 37.8865 26.5956 37.8259 26.5654 37.9319C26.5351 38.0531 26.5654 38.1742 26.6562 38.2803C26.7168 38.356 26.8531 38.3105 26.8834 38.3257C26.9288 38.3408 26.944 38.4014 27.0349 38.4317C27.262 38.5226 27.777 38.1137 27.8376 38.1137C28.095 38.2348 28.3676 38.0228 28.3979 37.8713C28.4131 37.735 28.3979 37.6593 28.3525 37.5533C28.3071 37.4473 28.1405 37.2807 28.1405 37.2807C28.1405 37.2807 28.3373 37.2201 28.3828 37.2049C28.3828 37.2049 28.4131 37.1746 28.4737 37.2201C28.5342 37.2504 28.8371 37.311 28.9129 37.2958C29.0037 37.2958 29.3218 37.1444 29.3824 37.1595C29.4278 37.1898 29.761 37.3261 29.8822 37.3261C30.0033 37.3412 30.4577 37.3412 30.594 37.311C30.7152 37.2807 30.9726 37.2049 30.9726 37.2049C30.9726 37.2049 31.1847 37.7047 31.5178 37.8865C31.8359 38.0682 32.7143 38.4468 32.7143 38.4468C32.7143 38.4468 33.0627 38.8103 33.2898 38.8103C33.517 38.8103 33.5776 38.6134 33.5776 38.568C33.5776 38.5226 33.5625 38.2651 33.6079 38.1439C33.6533 38.0076 33.6988 37.6139 33.7139 37.4321C33.7291 37.2504 33.7896 36.7354 33.2898 36.6597C33.2141 36.6446 33.0475 36.6143 33.0021 36.6143C32.9264 36.6143 32.9718 36.796 32.9415 36.7203C32.9112 36.6446 32.8355 36.6294 32.8052 36.6294C32.7143 36.6749 32.6689 36.7506 32.6689 36.7809C32.6689 36.8566 32.6992 37.0686 32.6992 37.0686C32.6992 37.0686 32.2903 36.7506 32.1842 36.6597C32.0782 36.5688 31.5936 36.2962 31.5936 36.2962C31.5936 36.2962 31.3361 36.0236 31.2604 35.9782C31.2149 35.9327 30.5334 35.6147 30.1699 35.6147C30.1699 35.3421 30.1548 34.6757 29.9882 34.3576C29.9882 34.2668 30.0942 33.3429 30.0336 33.1006C30.0033 32.9946 30.1699 32.9037 30.2456 32.9037C30.3214 32.9037 31.1089 33.0854 31.321 32.9946C31.321 32.9946 31.7299 32.8885 31.8359 32.7371C31.8359 32.7371 31.9116 32.3888 31.7147 32.0859C31.5178 31.7678 30.806 31.056 30.6243 30.9045C30.6546 30.7228 30.6697 30.4047 30.6697 30.4047C30.6697 30.4047 30.6697 30.329 30.6243 30.2836C30.5788 30.2381 30.2608 29.8746 30.2154 29.8292C30.1699 29.7989 30.0336 29.7535 29.973 29.7686C29.9125 29.7838 29.9276 29.9201 29.973 29.9504C30.0033 29.9807 30.1093 30.0715 30.1093 30.0715L30.1548 30.2078C30.1548 30.2078 30.0942 30.2381 30.0791 30.2684C30.0639 30.2987 30.0639 30.4653 30.0942 30.4956C30.1245 30.5259 30.2002 30.541 30.2002 30.541C30.2002 30.541 30.1245 30.6925 30.0639 30.7076C30.0033 30.6168 29.9125 30.3593 29.8216 30.4502C29.7761 30.4956 29.761 30.5713 29.7761 30.6319C29.7913 30.6925 29.9125 31.0257 29.973 31.0863C30.0336 31.1468 30.0791 31.1771 30.0791 31.1771C30.0791 31.1771 30.5486 31.9344 30.5637 32.0556Z" fill="#BDBBBB"/>
<path d="M35.8303 27.8737C35.694 27.8737 35.5122 27.7828 35.4668 27.5405C35.4517 27.4951 35.3305 27.2074 35.2245 26.9499C34.6188 25.5416 34.6642 26.0565 34.7248 25.8293C34.8308 25.4204 35.3911 25.375 35.8 25.375H35.9968C36.1937 25.375 36.3754 25.4507 36.5117 25.587C36.7389 25.8142 36.7994 26.1322 36.7994 26.2836C36.7994 26.2988 36.4966 27.2074 36.3451 27.4951L36.33 27.5102C36.0877 27.8737 35.8908 27.8737 35.8303 27.8737Z" fill="black"/>
<path d="M11.9888 20.8594C11.6859 20.511 11.4587 19.9052 11.6708 19.7992C11.8677 19.6932 12.0645 19.8446 12.1857 19.9052C12.3674 20.0112 12.4583 19.9355 12.4432 19.6932C12.4432 19.5114 12.4129 19.3297 12.3977 19.1631C12.3372 18.6482 12.0645 18.0878 11.8677 17.8758C11.5193 17.4971 10.5349 17.0731 9.91392 17.4971C9.73217 17.6183 9.59587 17.8152 9.48985 18.0575C9.44441 18.1484 9.56558 18.2544 9.53529 18.3453C9.30811 18.9056 8.95977 19.5417 8.55085 19.9507C8.5357 19.9658 9.92906 20.087 11.8979 21.5258C12.0645 21.6469 11.7465 22.3587 11.6253 22.3133C11.5647 22.3133 11.8222 21.7226 11.6253 21.6166C10.7166 21.1017 10.1865 21.0411 9.505 20.7988C9.3384 20.7382 8.8689 21.0411 8.74773 20.9351C8.58114 20.7079 8.0662 20.4656 8.00562 20.4353C8.02076 20.4504 8.08134 20.4959 8.11163 20.7079C8.17222 21.2683 7.14234 20.7079 8.02076 21.6015C8.26309 21.8438 8.50541 22.0407 8.68715 21.965C8.97491 21.965 8.83861 21.9953 8.8689 22.071L9.02035 22.4193C9.05064 22.4951 9.08093 22.4799 9.09607 22.4042L9.1718 22.0256C9.18695 21.9498 9.24753 21.9044 9.32325 21.9044C9.32325 21.9044 10.656 21.9347 10.9286 21.965C11.2013 21.9953 11.2164 22.0861 11.2164 22.0861C11.2316 22.1619 11.3376 22.3133 11.1104 22.4951C10.9438 22.6314 10.55 22.3587 10.232 22.6011C9.91392 22.8585 9.27782 22.9797 9.27782 22.9797C9.20209 22.9948 9.12636 22.9494 9.09607 22.8888L8.92948 22.5253C8.89919 22.4496 8.8689 22.4648 8.8689 22.5405L8.82346 23.01C8.82346 23.0857 8.79317 23.1463 8.77802 23.1463C8.76288 23.1463 8.71744 23.1009 8.68715 23.0251L8.67201 22.9948C8.64172 22.9343 8.58114 22.9191 8.5357 22.9797L8.44483 23.0706C8.39939 23.1312 8.32367 23.116 8.29338 23.0554L8.26309 23.01C8.2328 22.9494 8.15707 22.9494 8.12678 23.01L8.08134 23.1009C8.05105 23.1614 7.99047 23.1614 7.97533 23.0857L7.96018 23.0251C7.92989 22.9646 7.8996 22.9494 7.86931 23.0251C7.85417 23.0706 7.82388 23.0857 7.79358 23.0554L7.70271 23.1463C7.65728 23.1917 7.56641 23.2675 7.56641 23.3432C7.56641 23.4189 7.65728 23.4643 8.12678 23.5552C8.58114 23.6461 10.7166 22.7828 11.3981 22.9191C12.1857 23.0857 12.4735 22.4345 12.534 21.6166C12.534 21.6015 12.534 21.556 12.5189 21.4803C12.3372 21.2683 12.1403 21.0411 11.9888 20.8594ZM45.6718 37.5948C45.5961 37.7312 45.3537 37.7463 45.2629 37.7917C45.0811 37.8675 44.9145 37.9735 44.9297 38.0946C44.9297 38.1401 44.8994 38.7307 44.9297 38.7913C44.96 38.8519 45.2023 38.9428 45.2629 38.8519C45.2932 38.8065 45.2629 38.3824 45.3083 38.0946C45.3235 38.0492 45.3537 37.8826 45.4295 37.8372C45.4598 37.822 45.7324 37.7009 45.6718 37.5948ZM25.1197 27.2961C25.3318 27.2809 25.6347 27.2204 25.7407 27.2961C25.8467 27.3718 25.9981 27.6444 25.983 27.811C25.9679 27.9776 25.4378 28.8409 25.4075 28.8863C25.3772 28.9318 25.3166 29.0529 25.2257 28.9166C25.1349 28.7803 24.9531 27.4475 24.9531 27.4475C24.9531 27.4475 24.938 27.3112 25.1197 27.2961Z" fill="#BDBBBB"/>
<path d="M48.4144 32.4279C48.1266 32.0038 47.3845 31.2466 47.0967 30.8831C46.703 30.3984 44.9007 28.2933 44.9007 28.2933C44.9007 28.2933 44.3857 25.1128 44.1586 24.3858C44.0223 23.9163 43.6285 20.5692 41.0235 18.7366C41.1598 18.4943 42.8561 19.8271 43.4619 20.857C44.5675 22.7198 45.037 27.5966 45.037 27.5966C45.037 27.5966 45.7337 20.1603 41.7959 18.5852C38.9789 17.4038 37.5552 17.5856 37.5552 17.5856C37.5552 17.5856 35.6015 18.7669 36.7828 20.9933C37.01 21.4325 39.5847 25.3702 39.7513 25.6883C41.2204 28.4296 45.87 31.6252 46.7181 32.5036C46.7635 32.5491 47.5662 33.0792 47.6268 33.6547C47.642 33.7607 46.5364 33.0337 46.5515 33.1549C46.703 34.5331 46.5364 37.1684 46.5212 37.4713C46.4909 37.8196 46.4758 37.865 46.2638 37.9408C46.0517 38.0165 45.8397 37.8196 45.7034 38.1831C45.5671 38.5769 45.6125 38.8798 45.976 38.8798C46.3395 38.8798 46.8999 39.0767 47.2633 37.7136C47.6117 36.3505 48.3992 33.9121 48.6264 33.0186C48.687 32.8065 48.5204 32.5642 48.4144 32.4279ZM9.06707 15.6016C9.06707 15.6016 9.36997 16.5103 9.36997 16.7677C9.36997 17.0252 9.2791 17.0404 9.2791 17.0404L8.35524 17.4341C8.35524 17.4341 8.55213 17.207 8.65815 16.9192C8.77931 16.6314 9.06707 15.8742 9.06707 15.6016ZM41.2204 37.0624C41.2204 37.0624 41.1144 37.0321 41.0386 37.1078C40.9478 37.2289 40.9175 37.6682 40.9175 37.6682C40.9175 37.6682 41.0235 37.8045 41.2204 37.7287C41.4173 37.653 41.8111 37.3501 41.6899 37.2592C41.5687 37.1532 41.2204 37.0624 41.2204 37.0624ZM40.872 36.8503C40.872 36.8503 40.6903 36.8503 40.6146 36.9412C40.5237 37.0321 40.3723 37.3047 40.3874 37.4107C40.4026 37.5167 40.554 37.6833 40.6297 37.5773C40.7055 37.4561 41.0689 36.8352 40.872 36.8503ZM7.18906 20.2814C6.97703 20.5995 7.58284 20.8872 7.73429 20.7206C7.84031 20.2814 7.38595 20.1148 7.18906 20.2814ZM17.7604 38.1074C17.7604 38.1074 17.4121 38.7889 17.4121 38.8646C17.3969 38.9252 17.4272 38.9858 17.4575 38.9858C17.503 38.9858 17.6241 39.0161 17.715 38.9555C17.7907 38.8949 18.1239 38.2134 18.1694 38.1225C18.1694 38.0922 17.9119 37.9408 17.7604 38.1074Z" fill="#BDBBBB"/>
<path d="M44.328 33.0559C44.4946 32.4501 43.9342 32.3895 43.7373 33.1771C43.6767 33.4497 42.8892 36.297 42.7983 37.0542C42.7983 37.0997 42.8286 37.13 42.8589 37.0845C42.8589 37.342 44.2523 33.3285 44.328 33.0559ZM18.8689 17.5169C17.4906 17.7895 15.5521 17.8955 14.507 17.7592C13.674 17.6381 13.6286 17.1231 13.7801 16.6839C13.0077 17.4412 12.5987 17.1534 12.5836 17.0625C12.5533 16.9414 12.8714 17.0625 13.0682 16.8656C13.2803 16.6688 13.4014 15.9418 13.2348 15.5934C13.0682 15.2451 13.25 15.3057 13.25 15.3057C13.25 15.3057 13.674 15.3511 13.8558 15.8661C13.977 15.3511 13.2651 14.715 13.0379 14.8665C12.8108 15.0179 12.3413 15.3966 12.4018 15.9569C12.4776 16.6385 12.4321 16.9868 12.205 16.9717C10.6904 16.9111 9.00932 16.6991 8.07031 17.6835C8.07031 17.6835 9.2062 16.9414 10.0846 17.0171C10.9631 17.0928 12.7502 17.2746 12.8562 19.3798C12.8562 19.3798 12.8411 19.8493 12.8713 20.3945C12.8865 20.6822 12.6139 20.5005 12.6139 20.6368C12.629 21.2123 13.0379 21.1215 13.0077 21.6364C12.8713 23.6961 11.9172 23.6507 11.9172 23.6507C11.9172 23.6507 13.0682 23.8173 13.6438 21.8787C13.6438 22.9843 13.5226 23.2569 13.0834 23.6961C13.9618 23.7567 14.6585 22.9237 14.6736 22.8026C14.8099 23.0146 15.0523 23.681 15.7035 23.9688C15.3855 23.4387 15.4612 22.7874 15.5218 22.2119C15.7187 23.4993 16.0518 23.9839 16.7031 24.2565C16.4305 23.9839 15.9004 23.3932 16.0518 22.3482C16.173 23.2418 17.218 24.0445 17.218 24.0445C17.218 24.0445 16.8848 23.5144 16.794 22.5603C17.2483 23.5295 17.7178 23.6053 17.7178 23.6053C17.7178 23.6053 16.9757 22.8177 16.8545 21.803C16.8394 21.7878 17.3846 22.4997 17.8087 22.4997C17.4755 22.0908 16.9454 21.5304 16.8848 20.8034C17.218 21.2426 17.4604 21.5152 17.8541 21.5607C17.5209 21.1972 17.2635 20.5914 17.1574 19.8644C17.5361 20.3339 17.4604 20.4854 18.1722 20.6822C17.8996 20.4248 17.7178 19.6978 17.839 19.3495C17.9601 19.5918 18.4296 19.8493 18.9749 19.9098C18.7931 19.7887 18.5054 19.1071 18.5508 18.8345C18.8083 18.9557 19.3384 19.1374 19.7776 19.0769C19.5655 18.9557 19.4292 18.3499 19.4898 18.2136C19.611 18.2893 20.4288 18.2742 20.5954 18.2136C20.3379 18.047 20.0956 17.8047 20.1562 17.8198C20.3531 17.8955 20.6711 17.7289 21.0952 17.6532C21.5344 17.5775 21.6101 17.5775 21.8979 17.5775C21.6707 17.4109 19.9442 17.2594 18.8689 17.5169ZM32.7873 26.1345C32.7873 26.1345 31.9089 26.0739 31.8332 26.3466C31.7726 26.6192 32.2421 28.058 32.3027 28.2246C32.4087 28.4972 32.7116 27.8611 32.7116 27.8611C32.8025 27.6945 33.166 26.8464 33.166 26.7252C33.166 26.604 33.1811 26.1345 32.7873 26.1345ZM29.3191 26.2708C29.3191 26.2708 28.4406 26.2103 28.3649 26.4829C28.3043 26.7555 28.6678 28.0125 28.7435 28.1943C28.8344 28.4517 29.0162 28.058 29.0162 28.058C29.107 27.8914 29.8189 26.9978 29.8189 26.8766C29.8189 26.7403 29.728 26.2708 29.3191 26.2708Z" fill="#BDBBBB"/>
<path d="M35.512 17.5413C35.2394 17.5565 32.9222 17.814 31.3925 17.8291C30.1658 17.8291 28.8633 17.7685 28.1817 17.7988C28.1212 17.7837 28.0454 17.7988 27.9697 17.814C26.9398 17.7685 23.6382 17.7231 23.6382 17.7231C23.3959 17.6777 20.0488 18.5409 19.5641 22.2515C19.2612 24.5384 19.4127 25.2806 19.9276 26.3559C20.2305 27.0071 20.8515 28.2036 20.8363 29.1274C20.8212 29.5212 20.1396 27.4918 20.1396 27.7189C20.2456 30.0665 19.8216 35.3673 19.5944 36.5032C19.3218 37.836 19.0492 37.1696 18.7311 37.7299C18.6857 37.8208 17.989 39.0627 18.0041 39.0779C18.0193 39.093 18.3525 39.0324 18.7008 39.0021C19.1098 38.987 19.4429 37.8814 19.7156 37.8814C19.761 37.8814 19.4127 38.775 19.4581 38.7598C19.7459 38.6841 20.2154 38.5629 20.1851 38.7901C20.2911 38.8204 20.382 38.775 20.4425 38.6992C20.5334 38.5932 20.912 36.8818 21.1392 35.9882C21.1998 35.8368 21.5784 35.9277 21.6844 35.9579C21.8965 35.5339 21.5633 34.1405 22.1539 32.1868C22.7446 30.2785 23.3656 28.6125 23.0929 28.1127C23.0627 28.0521 22.0479 29.4001 22.0328 29.3546C21.9722 29.2032 25.3344 23.5389 24.6832 20.6158C24.6681 20.5098 24.6226 20.3886 24.6226 20.3129C24.6226 20.2978 25.0164 20.4492 25.501 20.5855C26.1371 20.7824 26.6824 20.8884 26.8793 21.6154C27.1064 23.0239 27.7577 25.0231 29.0905 25.1443C28.4847 24.599 27.7122 21.782 27.8031 20.631C28.1817 22.509 29.3176 25.2351 30.2718 25.114C30.0749 24.8111 29.2873 23.0996 29.2873 22.0092C29.6205 22.9028 30.4384 24.8716 31.0593 24.8868C32.6647 24.9171 33.0737 24.1901 34.2701 23.9175C36.9357 23.3117 37.6324 24.3264 38.0413 24.5536C37.7232 24.2355 36.6025 22.2969 35.8604 20.7824C35.2697 19.586 36.2693 18.3895 37.9504 17.6322C38.2836 17.5111 36.0421 17.5262 35.512 17.5413Z" fill="#BDBBBB"/>
<path d="M35.9646 25.6785C35.9646 25.6785 35.071 25.6179 35.0104 25.8905C34.9347 26.1632 35.5708 27.193 35.7525 27.4808C35.8888 27.6928 36.0251 27.3445 36.0251 27.3445C36.116 27.1779 36.4341 26.3903 36.4341 26.2843C36.4492 26.148 36.3583 25.6785 35.9646 25.6785ZM27.4529 24.9364C27.0289 24.7849 26.5291 23.9217 26.3776 23.5582C26.2262 23.1795 25.9384 22.0891 26.105 21.6953C26.1959 22.0891 26.4382 22.9372 26.6199 23.3159C26.8926 23.8914 27.2409 24.6335 27.4529 24.9364Z" fill="#BDBBBB"/>
<path d="M36.4627 36.1135C36.387 35.9469 35.9932 35.7954 35.8114 35.7652C35.6448 35.75 35.6146 35.7349 35.5994 35.9015C35.5843 36.0378 35.5843 36.1741 35.5994 36.3255C35.6448 36.5678 35.66 36.4921 35.8872 36.5073C36.0538 36.5224 36.2052 36.5376 36.3567 36.5376C36.5081 36.5224 36.5384 36.5224 36.5384 36.3861C36.5384 36.2649 36.5838 36.1286 36.4627 36.1135ZM9.88281 18.3481C9.88281 18.3481 10.1554 17.8786 10.4886 17.7878C10.7309 17.7272 10.9884 17.8635 11.367 18.1058C11.7457 18.3633 11.9426 18.7571 12.3212 18.651C12.4424 18.6208 12.0334 19.0751 11.6699 18.9539C11.5791 18.9237 11.0338 18.0149 10.5038 18.0301C10.4886 18.0301 10.1554 18.1058 9.88281 18.3481Z" fill="black"/>
<path d="M10.8528 17.927C10.4137 17.8059 10.1562 18.1088 10.1562 18.1088C10.2774 17.8059 10.8074 17.9876 11.0346 18.0936C11.1557 18.1542 11.3374 18.4419 11.4586 18.6842C11.3223 18.5479 11.1254 18.3965 10.9589 18.3813C10.6257 18.3511 10.5954 18.7902 10.5954 18.7902L10.4288 19.0022C10.4288 19.0022 10.4591 19.0628 10.7166 19.0628C10.974 19.0628 11.8826 19.0477 11.9886 18.9417C12.0946 18.8205 11.3374 18.0633 10.8528 17.927ZM10.9437 18.8811C10.868 18.8811 10.7923 18.7902 10.7923 18.6994C10.7923 18.5934 10.8528 18.5176 10.9437 18.5176C11.0194 18.5176 11.1254 18.6085 11.1254 18.6994C11.1254 18.8054 11.0346 18.8811 10.9437 18.8811ZM15.5019 20.6074C15.5019 20.6074 15.6533 21.1223 15.8199 21.2132C15.9865 21.304 16.3954 20.6832 16.3954 20.6832C16.3954 20.6832 16.1076 21.4403 15.8502 21.6372C15.6382 21.4858 15.5625 21.2889 15.5019 20.6074Z" fill="black"/>
<path d="M16.1271 21.1797C16.1271 21.1797 16.3694 21.6794 16.536 21.7854C16.7025 21.8763 17.066 21.2857 17.066 21.2857C17.066 21.2857 16.7328 22.058 16.5663 22.2094C16.3997 22.058 16.0968 21.8763 16.1271 21.1797ZM14.7188 22.0277C14.7188 22.0277 15.0216 22.5729 15.1882 22.6335C15.4911 22.7546 15.5062 21.9671 15.5062 21.9671C15.5062 21.9671 15.6274 22.8455 15.2942 23.1332C15.0368 22.9818 14.8853 22.8758 14.7188 22.0277Z" fill="black"/>
<path d="M15.4727 21.7139C15.4727 21.7139 15.6241 22.1985 15.7755 22.3045C15.927 22.4257 16.245 21.5625 16.245 21.5625C16.245 21.5625 16.139 22.4105 15.8967 22.8346C15.7452 22.668 15.4878 22.3954 15.4727 21.7139Z" fill="black"/>
<path d="M16.082 22.1073C16.082 22.1376 16.3698 22.5617 16.5515 22.6374C16.7332 22.7131 16.8543 21.9862 16.8543 21.9862C16.8543 21.9862 16.8998 22.8191 16.6878 23.0614C16.5515 22.9705 16.1426 22.7585 16.082 22.1073ZM16.2486 20.0781C16.2486 20.0781 16.5363 20.7141 16.7181 20.8202C16.8998 20.911 17.1875 20.2296 17.1875 20.2296C17.1875 20.2296 17.0512 20.9716 16.7029 21.2139C16.4758 21.017 16.4 20.8807 16.2486 20.0781Z" fill="black"/>
<path d="M15.7607 19.5313C15.7607 19.5313 15.9424 20.0159 16.0938 20.0916C16.2604 20.1825 16.533 19.5313 16.533 19.5313C16.533 19.5313 16.3664 20.3642 16.109 20.6216C15.9424 20.4702 15.8667 20.2431 15.7607 19.5313ZM16.745 19.3647C16.745 19.3647 16.8964 19.7736 17.0327 19.8645C17.169 19.9553 17.381 19.5919 17.381 19.5919C17.381 19.5919 17.2901 20.1673 17.0478 20.243C16.9267 20.1522 16.8207 19.9553 16.745 19.3647ZM17.487 18.8801C17.487 18.8801 17.5627 19.2739 17.6839 19.3496C17.7899 19.4253 18.0019 19.077 18.0019 19.077C18.0019 19.077 17.9716 19.5162 17.6687 19.713C17.5627 19.5616 17.4416 19.4102 17.487 18.8801ZM18.1987 18.3047C18.1987 18.3047 18.2745 18.6984 18.3956 18.7741C18.5016 18.8499 18.7136 18.5016 18.7136 18.5016C18.7136 18.5016 18.6682 19.0316 18.3956 19.0921C18.4259 19.1527 18.1382 18.7741 18.1987 18.3047ZM14.8672 21.0911C14.8672 21.0911 15.1246 21.5454 15.2458 21.5605C15.3669 21.5757 15.5941 21.0911 15.5941 21.0911C15.5941 21.0911 15.4881 21.7423 15.2458 21.8785C15.1398 21.7423 14.9278 21.5454 14.8672 21.0911Z" fill="black"/>
<path d="M16.3981 18.9353C16.3981 18.9353 16.5042 19.314 16.6253 19.3897C16.7465 19.4654 16.9282 19.1019 16.9282 19.1019C16.9282 19.1019 16.8676 19.6472 16.6556 19.7986C16.5344 19.6775 16.383 19.4806 16.3981 18.9353ZM22.6077 18.0266C22.6077 18.0266 24.1222 17.4511 24.4705 19.8744C24.6371 18.9959 24.4251 17.9358 23.8193 17.6177C23.2135 17.2997 22.6077 18.0266 22.6077 18.0266ZM10.8398 16.8907C10.8398 16.8907 13.3085 17.0422 13.7326 19.8289C13.8689 19.314 13.3085 17.6329 12.5967 17.2239C12.521 17.1785 12.2181 17.0271 12.4301 16.5273C11.6274 16.4061 10.8398 16.8907 10.8398 16.8907ZM38.5708 35.9434C38.5708 35.9434 38.5556 37.0793 38.3133 37.3671H38.4496C38.495 37.3217 38.601 36.9582 38.6313 36.8219C38.6768 36.6704 38.6616 36.0343 38.6616 36.0343L38.5708 35.9434ZM37.1168 28.0528C37.132 28.0679 37.132 28.1436 37.1168 28.2042C37.1168 28.2042 37.0865 28.3254 37.238 28.4011C37.344 28.4466 37.4046 28.5374 37.4349 28.598C37.45 28.6131 37.45 28.6283 37.4652 28.6434C37.4954 28.6737 37.4954 28.704 37.4803 28.7797C37.4652 28.81 37.45 28.8403 37.4349 28.8555C37.4197 28.8706 37.4046 28.8858 37.4197 28.9161C37.4349 28.9463 37.45 29.0221 37.5257 29.0675C37.5409 29.0827 37.5712 29.1281 37.5409 29.2492L37.5257 29.2795C37.4803 29.4158 37.5106 29.7339 37.6015 29.7188C37.6772 29.7036 37.662 29.4158 37.6923 29.3856C37.7378 29.325 37.7681 29.1584 37.7529 29.0675C37.7529 29.0372 37.7378 29.0069 37.7226 28.9918C37.6469 28.9463 37.6317 28.9161 37.6317 28.9009C37.6317 28.9009 37.6469 28.8858 37.6469 28.8706C37.662 28.8555 37.6772 28.8252 37.6923 28.7949C37.7226 28.7343 37.7075 28.6434 37.6772 28.5829C37.662 28.5374 37.5106 28.3557 37.4349 28.3254C37.3591 28.3102 37.3288 28.2648 37.3288 28.2194V28.1436C37.344 28.0831 37.344 28.0225 37.3137 27.9771C37.0714 27.6439 36.723 27.6893 36.723 27.6893L36.5716 27.8559C36.5413 27.8559 36.8139 27.7196 37.1168 28.0528ZM35.9355 28.5071C36.0264 28.5071 36.0869 28.6586 36.1021 28.6889C36.1021 28.7192 36.0869 28.7192 36.0415 28.704C35.9961 28.704 35.9506 28.598 35.8598 28.6132C35.7689 28.6132 35.7689 28.6889 35.7386 28.6889C35.6932 28.6737 35.8446 28.5071 35.9355 28.5071ZM36.6473 28.2497C36.7533 28.28 36.7685 28.386 36.7685 28.386C36.7685 28.386 36.6776 28.3102 36.6019 28.2951C36.5262 28.28 36.4807 28.2951 36.4807 28.2951C36.4807 28.2951 36.511 28.2042 36.6473 28.2497Z" fill="black"/>
<path d="M38.0244 33.5549L37.9487 33.1611L37.9033 33.0096L37.1914 31.6769L37.1611 31.6314C37.1309 31.6011 37.1157 31.5709 37.0551 31.5254C37.04 31.5103 37.0551 31.48 37.0703 31.4951C37.3277 31.5254 37.7518 31.4043 37.8578 31.374C37.8881 31.4043 38.5848 32.2221 38.6302 32.1918C38.6908 32.1615 37.9184 31.1619 37.9184 31.1619C37.9184 31.1619 37.9941 30.753 37.979 30.7076C37.9487 30.6167 37.7367 30.4652 37.6609 30.4652H37.6458C37.6306 30.435 37.6155 30.4198 37.6155 30.4047L37.6004 30.3895C37.5398 30.2987 37.5095 30.2229 37.4792 30.1775C37.6155 30.2229 37.7518 30.2684 37.7669 30.2684H37.8427L37.9184 30.1623L37.3429 29.9655C37.2823 29.9503 37.2369 29.8291 37.2217 29.7383C37.2217 29.6777 37.6306 29.2688 37.5549 29.2536C37.4035 29.2082 37.0248 29.602 37.0097 29.7231C37.0097 29.7989 37.04 29.9655 37.1157 30.0412C37.0854 30.0715 37.0703 30.1169 37.0703 30.1472C36.3433 30.1926 36.0858 30.4652 36.0555 30.5864C36.0555 30.5864 36.6311 30.3592 36.8431 30.3289C36.7068 30.4501 36.9188 30.7076 36.9188 30.7076C36.8885 30.6924 36.8279 30.647 36.7522 30.7076C36.6159 30.8136 36.7522 31.0408 36.7825 31.0862C36.7219 31.0862 36.6916 31.1013 36.6613 31.1165C36.5856 31.1922 36.7219 31.374 36.8279 31.48C36.8734 31.5254 36.6613 31.5103 36.0555 31.0559C36.0707 31.4951 36.8128 31.7677 37.04 31.7677C37.0551 31.7526 37.9941 33.4943 38.0244 33.5549ZM36.8128 31.1771C36.8582 31.1316 36.9794 31.2377 37.0097 31.2074C37.04 31.1771 36.7674 30.859 36.8582 30.7984C36.9643 30.7227 37.0854 30.965 37.146 30.9348C37.2066 30.8893 37.1763 30.859 37.1611 30.8287C37.1611 30.8136 37.04 30.6016 37.04 30.6016C37.0248 30.5864 36.9037 30.3895 36.9945 30.3441C37.0854 30.3138 37.1763 30.4652 37.1914 30.4804C37.2066 30.4804 37.358 30.7833 37.4338 30.7379C37.4943 30.7076 37.3126 30.2684 37.3126 30.2684C37.2974 30.2229 37.2217 30.1169 37.2672 30.0866C37.3126 30.0563 37.358 30.0563 37.464 30.2078C37.4792 30.2229 37.767 30.7682 37.8124 30.753C37.8124 30.753 37.8124 30.647 37.7669 30.5561C37.8275 30.6016 37.9487 30.6318 37.9335 30.7227C37.9335 30.753 37.9184 30.9802 37.873 31.0408C37.7367 31.2074 37.1309 31.4043 36.934 31.374C36.8885 31.3588 36.7674 31.2377 36.8128 31.1771ZM35.1014 33.4792L35.0105 33.5397L34.8591 33.6306C34.8894 33.6912 35.48 35.1603 36.101 35.6146L36.1161 35.554C35.2831 34.4636 35.1014 33.4792 35.1014 33.4792ZM37.358 34.2364C36.9945 34.297 36.7371 35.5086 36.7371 35.5086C36.8279 35.3874 36.8279 35.5843 36.8279 35.5843C36.8279 35.5843 37.1157 34.5545 37.3883 34.4484C37.6458 34.3424 38.0396 34.3879 38.0396 34.3879C38.0396 34.3879 37.7367 34.1758 37.358 34.2364ZM34.5259 32.313C34.5713 32.2827 34.4199 31.1316 34.4199 31.1316L34.3593 31.1922L34.2684 31.1316C34.2381 31.2377 34.4804 32.3433 34.5259 32.313ZM34.7985 31.3891L34.8894 32.3281L35.056 32.2372L35.0105 31.5406C35.0105 31.5406 35.0862 31.5708 35.1165 31.5557C35.1468 31.5254 34.9954 31.3891 34.9802 31.2225C34.9802 31.1013 35.1165 30.9348 35.0862 30.9196C35.056 30.9045 35.0105 30.9499 35.0105 30.9499C35.0257 30.8287 35.0257 30.7076 35.0408 30.6318C35.056 30.5258 35.2074 30.2987 35.2074 30.2987C34.8742 30.4198 34.8136 30.7984 34.8136 30.7984L34.7833 31.1013C34.7833 31.1013 34.7531 31.1922 34.7531 31.2528C34.7531 31.3134 34.7985 31.3891 34.7985 31.3891ZM34.4047 34.3727C34.3593 34.615 35.3589 35.5389 35.3589 35.5389L35.6315 35.4026C35.6163 35.4026 34.6773 34.7211 34.4047 34.3727ZM35.2074 30.2078C35.2528 30.2381 35.48 30.2684 35.9041 30.541C35.9647 30.435 35.5255 30.1926 35.3134 30.1169C35.1923 30.1169 35.1771 30.1472 35.1771 30.1623C35.1923 30.1775 35.1923 30.1926 35.2074 30.2078ZM26.2566 33.3126C26.3626 33.2974 26.5595 33.0854 26.514 33.0702C26.4838 33.0551 26.3929 33.2065 26.2263 33.2065C26.1657 33.2065 26.1051 33.1914 26.0294 33.1762H26.0143C25.984 33.2065 25.8477 33.2368 25.8477 33.2368L25.8628 33.3277L26.0143 33.2974C26.0445 33.2823 26.1506 33.3277 26.2566 33.3126ZM29.5734 30.7379C29.6945 30.6167 29.4674 30.4653 29.4522 30.4501C29.4522 30.4501 29.6188 30.6621 29.4825 30.6016C29.3765 30.4198 28.9373 30.2987 28.9221 30.2835C28.8918 30.2532 28.9827 30.1775 29.2099 30.3592C29.225 30.3289 29.0736 30.1775 28.8767 30.1926C28.8767 30.1623 28.8464 30.1321 28.8313 30.1169H28.801C28.8161 30.1321 28.8464 30.1926 28.8161 30.1926C28.7707 30.1926 28.7555 30.1321 28.7404 30.1169C28.7101 30.0715 28.6192 30.1321 28.6798 30.1775C28.695 30.1926 28.7253 30.1926 28.7404 30.2078C28.7707 30.2229 28.7555 30.2381 28.7252 30.2229C28.695 30.2078 28.6495 30.2078 28.6041 30.2078C28.5587 30.2078 28.5132 30.2078 28.4678 30.2381C28.4526 30.2532 28.4375 30.2381 28.4526 30.2229C28.4678 30.2078 28.4981 30.1926 28.5132 30.1926C28.5889 30.1321 28.4526 30.0412 28.4375 30.1775C28.4223 30.2078 28.4072 30.2229 28.3921 30.2229C28.3315 30.2229 28.3921 30.1321 28.3921 30.1321L28.3769 30.1472C28.3618 30.1623 28.3315 30.1926 28.3315 30.2078C28.3163 30.2078 28.074 30.2229 28.0286 30.3592C28.2103 30.2229 28.3012 30.2381 28.286 30.2835C28.286 30.2987 28.074 30.4198 27.9831 30.5107C27.9074 30.5561 27.8014 30.6924 27.7862 30.6924C27.756 30.6924 27.7408 30.6318 27.8014 30.541C27.6802 30.647 27.7105 30.7379 27.7408 30.7833C27.6802 30.9196 27.6954 31.0862 27.7711 31.2225C27.8317 31.3437 28.2255 31.6769 28.2557 31.6466C28.286 31.6163 27.8468 31.2377 27.8165 31.0711C27.7408 30.6773 28.286 30.3138 28.4678 30.2987C28.4829 30.2987 28.4981 30.3441 28.6041 30.3441C28.7252 30.3441 28.7404 30.2987 28.7404 30.2987C28.8767 30.2835 29.5279 30.5258 29.4674 31.0105C29.4371 31.1619 29.3765 31.3437 29.4068 31.3588C29.4371 31.374 29.4674 31.2982 29.5279 31.1619C29.634 31.0408 29.634 30.8742 29.5734 30.7379ZM26.3474 35.3723C26.9835 35.3117 28.1346 37.2655 28.1649 37.2957C28.2103 37.3412 28.2709 37.2503 28.2709 37.2503C28.2255 37.1746 27.2107 35.0997 26.3474 35.3723ZM27.2107 32.1312C27.0744 32.1464 27.2259 33.9487 27.2259 33.9487L27.3622 33.7669C27.347 33.6609 27.3319 33.146 27.3319 33.0702C27.3773 33.1005 27.9831 32.9642 28.1194 32.7522C28.1194 32.7522 27.6954 32.8279 27.5894 32.8128C27.3925 32.7825 27.347 32.7067 27.3319 32.6462C27.347 32.5856 27.2713 32.1161 27.2107 32.1312Z" fill="black"/>
<path d="M27.12 34.9536L26.9988 35.0444C27.8771 35.5139 28.392 37.2099 28.4071 37.2251V37.2402L28.6949 37.3311C28.6949 37.3311 28.0286 35.3624 27.12 34.9536ZM29.1795 37.2402C29.2098 37.3008 29.4218 37.1948 29.4218 37.1948V37.1797C29.4218 37.1645 29.4066 36.3619 30.0578 35.7259C30.0578 35.7259 29.3309 35.8622 29.1795 37.2402ZM32.7382 37.0888L32.5716 36.9828C32.5716 36.9828 32.6473 37.3462 32.6473 37.5128C32.6473 37.5431 32.6322 37.5431 32.617 37.5582C32.617 37.5734 32.6019 37.5734 32.6019 37.5734C32.5413 37.6491 32.5867 37.8914 32.5867 37.8914C32.5867 37.8914 32.6625 37.74 32.723 37.6642L32.7382 37.6491C32.7685 37.6188 32.7836 37.5885 32.7685 37.4522C32.7836 37.3765 32.7382 37.0888 32.7382 37.0888ZM30.1486 32.1217C30.1184 32.1217 30.0578 32.5609 30.0578 32.6063C30.0578 32.6215 30.0426 32.8941 29.7246 32.8486C29.4066 32.8032 29.2855 32.7426 29.2855 32.7426C29.3915 32.9546 29.9215 33.0758 30.0426 33.2424C30.0729 33.2878 30.0881 33.4846 30.0881 33.4998H30.1941V33.1363L30.3001 33.1061C30.2547 32.3792 30.1789 32.1066 30.1486 32.1217ZM28.0134 31.7886C27.8317 31.7886 27.544 31.8189 27.544 31.8189L27.226 31.8794L27.3168 31.94C27.3168 31.94 27.7257 31.8492 28.0134 31.8492C28.0588 31.8492 28.0891 31.8492 28.1194 31.8643C28.3617 31.9249 28.6343 32.0157 28.6343 31.9854C28.6343 31.94 28.3011 31.8189 28.1346 31.7886H28.0134ZM30.0578 31.9097L30.0881 31.8946L30.1032 31.8794L30.1184 31.8643L30.1032 31.8492L29.9821 31.7734H29.3612C29.2097 31.7734 28.7403 31.9703 28.7706 32.0006C28.8009 32.0309 29.134 31.8946 29.3763 31.8643C29.6035 31.8189 30.0426 31.9097 30.0578 31.9097ZM31.2995 32.9243C31.2087 32.8335 30.5121 31.9854 30.5121 31.9854C30.5121 31.9703 30.4818 31.94 30.4667 31.94C30.4515 31.94 30.3607 31.94 30.3607 31.9703C30.5121 32.2126 30.8452 32.6063 31.0875 32.8032C31.1784 32.8941 31.2541 32.9546 31.2995 32.9243ZM26.9534 37.5128L27.0442 37.6491C27.0442 37.6491 27.1351 37.4371 27.2714 37.3462C27.4228 37.2705 27.6803 37.1494 27.7863 37.1494C27.3774 37.0434 26.9685 37.3614 26.9534 37.5128ZM26.7414 34.0752C26.8171 34.0752 26.8474 33.9995 26.8474 33.9238L26.8625 33.9087C26.8625 33.9087 26.9382 33.8481 26.9837 33.6815C27.0291 33.8935 27.12 34.2873 27.0442 34.3933L26.9231 34.5144L27.0442 34.4387C27.0897 34.4235 27.1654 34.3327 27.1502 34.1964C27.1351 34.1207 27.0139 33.4695 27.0139 33.4695V33.4392C27.0139 33.3484 26.9837 33.2726 26.9382 33.2121C26.8625 33.1061 26.7262 33.0455 26.6505 33.0455C26.6505 33.0455 26.9837 33.2726 26.9382 33.4998C26.8928 33.7269 26.8625 33.7421 26.8625 33.7421L26.8171 33.6967V33.8329C26.8019 33.8935 26.7868 33.9238 26.7414 33.9238C26.6202 33.9238 26.5142 34.0904 26.3779 34.0601C26.2416 34.0147 26.1811 33.9087 26.1053 33.8481C26.0296 33.7875 26.1508 33.6815 26.1508 33.6815C26.1508 33.6815 26.1508 33.6361 26.1053 33.6209C26.0751 33.5907 26.0145 33.7421 26.0145 33.7421C26.0145 33.7421 25.9388 33.939 26.0448 34.0147C26.2416 34.1358 26.1811 34.1358 26.3779 34.1964C26.5899 34.257 26.5596 34.0752 26.7414 34.0752Z" fill="black"/>
</g>
<defs>
<clipPath id="clip0_5952_22459">
<rect width="55.8102" height="72.6971" fill="white"/>
</clipPath>
</defs>
</svg>
