<svg width="50" height="55" viewBox="0 0 50 55" fill="none" xmlns="http://www.w3.org/2000/svg">
<mask id="mask0_5952_22389" style="mask-type:luminance" maskUnits="userSpaceOnUse" x="0" y="0" width="50" height="55">
<path d="M0 0H49.033V54.63H0V0Z" fill="white"/>
</mask>
<g mask="url(#mask0_5952_22389)">
<path d="M0.0166372 7.72986e-05L0.0137441 0.978219C0.0137441 1.51251 0.0108525 2.06658 0.00795772 2.6291C-0.00333187 4.77188 -0.011876 7.1974 0.0503615 9.76426C0.157786 14.1545 0.437648 19.2461 1.67584 23.712C3.21651 29.2556 5.48087 34.1433 8.60179 38.6547C12.3559 44.0824 17.5097 49.3068 23.9267 54.1801L24.5203 54.6296L25.1112 54.1801C31.5254 49.3065 36.6815 44.0853 40.4331 38.6547C43.5569 34.143 45.8212 29.2554 47.3591 23.712C48.668 19.0023 48.9167 13.7808 48.9874 9.75847C49.0157 8.02277 49.0128 6.38882 49.0071 4.80857C49.0014 3.46294 48.9987 2.19366 49.0185 0.997902L49.0326 0.00282692H48.0375L0.994663 0L0.0166372 7.72986e-05Z" fill="white"/>
</g>
<path d="M24.5128 53.3964C17.7113 48.2288 12.86 43.0925 9.40288 38.094C5.90601 33.0366 3.91021 28.0983 2.61545 23.445C1.42534 19.1509 1.13696 14.2889 1.02675 9.73468C0.947596 6.51765 0.98433 3.57201 0.989975 0.976562H48.0328C47.9904 3.57447 48.0582 6.51729 48.0017 9.73468C47.9225 14.2889 47.6031 19.1513 46.4101 23.445C45.1182 28.0981 43.1224 33.0368 39.6227 38.094C36.1682 43.0919 31.317 48.2285 24.5128 53.3964Z" fill="#D40723"/>
<path d="M1.96828 1.96094C2.16899 14.4077 -0.689039 33.071 24.5127 52.2177C49.7174 33.0739 46.8596 14.4106 47.06 1.96383L1.96828 1.96094Z" fill="white"/>
<path d="M34.0611 27.3511L34.7056 27.272C34.7282 27.4359 34.7819 27.5631 34.8724 27.6508C34.9628 27.7384 35.0731 27.7808 35.2003 27.7808C35.336 27.7808 35.4547 27.7271 35.548 27.6253C35.6413 27.5207 35.6894 27.3794 35.6894 27.2013C35.6894 27.0345 35.6441 26.9016 35.5537 26.8027C35.4632 26.7066 35.353 26.6557 35.2229 26.6557C35.1381 26.6557 35.0363 26.6726 34.9176 26.7066L34.9911 26.1638C35.172 26.1667 35.3077 26.1299 35.4038 26.0451C35.5 25.9631 35.5452 25.8528 35.5452 25.7143C35.5452 25.5984 35.5113 25.5051 35.4434 25.4345C35.3728 25.3666 35.2795 25.3299 35.1636 25.3299C35.0505 25.3299 34.9544 25.3694 34.8724 25.4486C34.7932 25.5277 34.7423 25.6436 34.7254 25.7963L34.1119 25.6917C34.1543 25.4797 34.2194 25.3129 34.3042 25.1857C34.3918 25.0613 34.5105 24.9624 34.666 24.8889C34.8187 24.8182 34.9911 24.7814 35.1833 24.7814C35.5113 24.7814 35.7742 24.886 35.9692 25.0952C36.1332 25.2677 36.2151 25.4599 36.2151 25.6747C36.2151 25.98 36.0484 26.2232 35.7148 26.4041C35.9127 26.4465 36.0738 26.5426 36.1925 26.6924C36.3113 26.8394 36.3706 27.0203 36.3706 27.2295C36.3706 27.5348 36.2604 27.7949 36.037 28.0098C35.8137 28.2246 35.5367 28.332 35.206 28.332C34.8893 28.332 34.6293 28.2416 34.4229 28.0606C34.2137 27.8797 34.095 27.6423 34.0611 27.3511ZM32.9077 26.0139C32.9077 25.7991 32.8568 25.6323 32.7607 25.5136C32.6589 25.3948 32.5458 25.3355 32.4158 25.3355C32.2942 25.3355 32.1896 25.3835 32.1105 25.4796C32.0285 25.5786 31.9861 25.7369 31.9861 25.9574C31.9861 26.1835 32.0313 26.3475 32.1189 26.4521C32.2094 26.5595 32.3197 26.6104 32.4525 26.6104C32.5797 26.6104 32.6872 26.5595 32.7748 26.4606C32.8624 26.3588 32.9077 26.209 32.9077 26.0139ZM31.3981 27.4698L32.0455 27.3991C32.0596 27.5291 32.102 27.628 32.167 27.6902C32.2348 27.7524 32.3225 27.7835 32.4299 27.7835C32.5684 27.7835 32.6843 27.7214 32.7805 27.5941C32.8794 27.4669 32.9388 27.2068 32.9671 26.8083C32.7974 27.0005 32.5882 27.0994 32.3395 27.0994C32.0652 27.0994 31.8278 26.9948 31.6299 26.7828C31.432 26.5708 31.3331 26.2966 31.3331 25.9574C31.3331 25.6068 31.4377 25.3213 31.6469 25.1065C31.8561 24.8888 32.1246 24.7814 32.4469 24.7814C32.8003 24.7814 33.0886 24.9199 33.3148 25.1913C33.5409 25.4655 33.654 25.9121 33.654 26.5369C33.654 27.173 33.5353 27.6309 33.3006 27.9136C33.066 28.1934 32.7607 28.3348 32.3791 28.3348C32.1105 28.3348 31.89 28.2613 31.7232 28.1171C31.5536 27.9729 31.4462 27.7581 31.3981 27.4698ZM15.8359 27.2153C15.8359 27.3991 15.8811 27.5433 15.9772 27.645C16.0705 27.7468 16.1864 27.8005 16.3278 27.8005C16.4663 27.8005 16.5794 27.7496 16.6698 27.6507C16.7603 27.5517 16.8055 27.4104 16.8055 27.2238C16.8055 27.0599 16.7575 26.9298 16.667 26.8309C16.5765 26.7319 16.4606 26.6839 16.3193 26.6839C16.1553 26.6839 16.0338 26.7376 15.9546 26.8507C15.8755 26.9637 15.8359 27.0853 15.8359 27.2153ZM15.8952 25.7255C15.8952 25.8584 15.9348 25.963 16.0083 26.0365C16.0846 26.11 16.1836 26.1496 16.3108 26.1496C16.4352 26.1496 16.5369 26.11 16.6133 26.0365C16.6896 25.9602 16.7263 25.8556 16.7263 25.7255C16.7263 25.5983 16.6896 25.4994 16.6133 25.4231C16.5398 25.3496 16.438 25.31 16.3164 25.31C16.1892 25.31 16.0875 25.3496 16.0111 25.4259C15.9348 25.5022 15.8952 25.6012 15.8952 25.7255ZM15.7595 26.3984C15.5871 26.3249 15.4627 26.2259 15.3836 26.0987C15.3044 25.9687 15.2648 25.8301 15.2648 25.6803C15.2648 25.4202 15.3553 25.2054 15.5362 25.0358C15.7171 24.8662 15.9744 24.7814 16.3108 24.7814C16.6387 24.7814 16.8959 24.8662 17.0797 25.0358C17.2606 25.2054 17.3539 25.4202 17.3539 25.6803C17.3539 25.8386 17.3115 25.9856 17.2267 26.11C17.1447 26.2344 17.026 26.3305 16.8733 26.3984C17.0656 26.4747 17.2126 26.5878 17.3143 26.7376C17.4133 26.8846 17.4641 27.057 17.4641 27.2521C17.4641 27.5715 17.3624 27.8344 17.156 28.0351C16.9525 28.233 16.6811 28.3348 16.3391 28.3348C16.0253 28.3348 15.7624 28.2528 15.5504 28.086C15.3016 27.8909 15.1772 27.6224 15.1772 27.2803C15.1772 27.0909 15.2253 26.9185 15.3186 26.7602C15.4118 26.6047 15.5588 26.4832 15.7595 26.3984ZM14.1906 28.2725H13.5263V25.7622C13.2832 25.9883 12.9948 26.158 12.6641 26.2682V25.6632C12.8393 25.6039 13.0259 25.4965 13.2323 25.3382C13.4358 25.1799 13.5743 24.9933 13.6507 24.7812H14.1906V28.2725Z" fill="#D40723"/>
<path d="M36.7888 4.0208C34.9597 3.25753 33.029 3.29995 31.6156 4.1141C30.3689 4.83496 29.5265 6.15794 29.5152 8.06046C29.4953 8.45057 29.3993 8.85203 29.2325 9.23928L29.2212 9.22515C28.6049 10.2457 27.573 11.2633 26.4197 11.1785C26.2133 10.1495 25.5349 8.74737 24.8819 7.85122C25.5858 7.88797 26.7363 8.62578 26.988 9.15726C27.5646 8.53251 28.3845 6.97208 28.1979 5.71408C27.0502 5.71408 25.9335 5.44553 24.7858 4.95363C24.7858 5.72819 23.443 7.5883 22.5102 8.00956C22.9766 8.69932 23.3696 10.2032 23.3498 11.5517C22.6601 12.1171 21.7498 12.2216 21.0147 12.2075C20.4522 11.334 19.6946 10.6894 19.6861 9.5926C19.6748 8.45619 20.7971 6.81941 22.007 5.75928L21.4049 5.01012C20.65 5.27019 20.0027 5.70554 19.4316 6.2794L19.4005 6.23417C18.7108 5.23627 17.5263 3.44397 15.8046 3.03125C15.3128 3.20087 14.6371 4.23554 14.1339 5.29279C12.2795 5.67159 10.8094 7.01438 10.1989 8.14797C9.55998 7.61368 9.10204 7.05678 9.0681 6.35003C8.97763 4.42486 11.4851 4.74148 12.7148 5.29279L12.7262 3.89628C10.8971 3.133 8.96353 3.17542 7.55291 3.99239C6.30621 4.71043 5.46382 6.03342 5.45253 7.93593C5.44964 9.23351 4.64967 10.2795 2.96767 10.8279C3.69983 11.1473 4.70901 10.9042 6.05182 10.5028C5.39597 11.4243 4.60726 11.8965 2.96484 12.2527C3.99104 12.606 5.58258 12.4647 7.02432 11.9954C6.65117 12.8067 5.41578 13.5078 3.0949 13.7763C5.12182 14.452 6.09995 14.2343 8.18621 13.6152C11.1064 12.7474 13.0004 15.1219 9.59401 15.9474C8.76857 16.1482 7.75647 15.7778 6.736 15.351L5.76921 16.5383C7.10066 17.228 9.38767 17.768 10.4732 17.7482C13.809 17.6832 15.1857 15.0456 14.3546 12.394C13.8231 10.7036 12.3277 9.71413 11.064 8.80387C12.1779 7.28579 16.1864 5.5388 17.6112 9.07809C16.9723 10.5876 16.684 12.199 16.7462 13.3863C16.8564 15.5093 19.0417 17.4938 17.6508 18.5624C17.3116 18.8026 16.4352 19.156 15.768 19.3709C12.8676 19.2012 11.1121 17.7143 8.89861 17.6069C7.23919 17.5277 5.91903 17.6747 5.06812 18.9214C3.86382 20.691 4.9522 23.6508 7.60667 23.7045C7.63496 22.6529 7.89502 22.0904 8.08724 21.7059C7.27309 21.7059 5.47517 21.8444 5.47517 20.6684C5.47806 20.0691 5.98683 19.8769 6.56634 19.8628C9.47239 19.7978 12.0223 23.6113 15.454 23.8402C15.4794 22.1412 17.9926 20.1483 19.9403 21.5052C20.8817 20.1257 20.7233 18.9242 20.1297 17.9489C21.1417 16.8294 21.5912 15.5545 21.611 14.2032C21.6168 13.864 21.5771 13.5643 21.5064 13.2929C22.134 13.1996 22.9283 12.9961 23.3524 12.6936V24.9624C23.9235 24.8832 24.0874 24.7871 24.6104 24.3659V22.3532C25.1871 22.2797 25.8232 22.2542 26.4309 21.7454V12.3034C27.508 12.2553 29.1222 11.6984 30.137 10.5563C30.1455 10.5535 30.1511 10.5535 30.1568 10.5507C29.8486 11.6617 28.9808 12.668 27.3412 13.0214C28.5596 13.4115 30.0325 12.931 31.1661 12.1196C30.8721 12.931 29.6734 14.2766 27.4684 14.5452C29.4953 15.2208 30.3179 14.5084 32.4042 13.8893C35.3244 13.0215 37.0658 15.2462 33.6594 16.0717C32.8339 16.2724 31.819 15.9021 30.8014 15.4752L29.8318 16.6597C31.1632 17.3523 33.4502 17.8922 34.5386 17.8696C37.7641 17.8102 39.1578 15.3395 38.4906 12.7755C41.3656 12.9818 43.6724 17.8017 41.2694 19.0654C40.2969 19.577 39.4546 19.4244 38.4934 19.2265C36.3704 18.7968 34.7845 17.8215 32.964 17.7367C31.3046 17.6575 29.9844 17.7989 29.1335 19.0456C27.9264 20.8152 29.0176 23.775 31.6692 23.8287C31.7003 22.7743 31.9604 22.2145 32.1526 21.8273C31.3357 21.8273 29.5377 21.9658 29.5405 20.7926C29.5405 20.1933 30.0494 19.9983 30.6289 19.9869C33.5378 19.922 36.0877 23.7355 39.5194 23.9644C39.542 22.2655 42.0552 20.2724 44.0058 21.6294C44.9697 20.2159 44.7803 18.9862 44.1471 17.9996C45.2015 16.6201 45.8518 15.2038 45.668 14.0165C45.5323 12.0122 43.7655 11.3931 43.7485 9.71675C43.7372 8.58034 44.8623 6.94357 46.0694 5.88343L45.4701 5.13427C44.7379 5.38587 44.0424 5.80143 43.4488 6.33574C42.7562 5.3322 41.5774 3.56538 39.8699 3.15548C39.3752 3.32509 38.6996 4.35977 38.1964 5.41702C36.3447 5.79582 34.8776 7.10466 34.267 8.23825C33.5235 7.61633 32.5482 6.32445 33.4896 5.41702C34.2161 4.72159 35.8557 5.00429 36.7801 5.41702L36.7888 4.0208ZM37.9422 11.122C37.2439 10.0196 35.986 9.2591 35.0163 8.66263C35.6609 7.78349 37.3853 6.71489 38.909 6.75165C41.0942 6.80254 42.8469 9.37504 40.7606 10.9242C40.28 11.2804 39.4857 11.2973 37.9422 11.122Z" fill="#D40723"/>
<path d="M24.5119 51.0288C15.6865 44.3262 10.4737 37.6832 7.34375 31.2489C15.4686 30.9973 20.7943 28.6735 24.5119 25.8438C28.9501 28.911 34.8389 31.4212 41.68 31.246C38.5534 37.68 33.338 44.3231 24.5119 51.0288Z" fill="black"/>
<path d="M24.513 49.8452C16.5184 43.773 12.0178 37.9889 9.05859 32.2197C15.0686 31.725 20.4625 30.0627 24.513 27.0859C28.5697 30.0599 33.9608 31.7249 39.9704 32.2197C37.0106 37.9894 32.5098 43.7734 24.513 49.8452Z" fill="#FFDC00"/>
<path d="M21.4801 42.921C21.7486 42.8842 22.0257 42.8503 22.3055 42.8192C21.4801 41.2249 22.5854 39.8764 24.0611 39.8453C22.9388 40.9167 22.9699 42.0813 23.784 42.6751C24.3183 42.6326 24.4398 42.6157 24.9855 42.5903C24.0272 41.1542 25.0844 39.9047 26.5403 39.7407C25.8364 40.4418 25.4745 41.7393 26.3395 42.5394C26.8314 42.5281 27.083 42.5224 27.5721 42.5253C27.0095 41.0439 28.129 40.1196 29.3502 40.0772C28.6802 40.6736 28.1714 41.8695 28.9572 42.6553C29.3389 42.7316 29.7346 42.726 30.3763 42.9154C30.7947 43.1274 31.1368 43.4582 31.2357 43.7239C26.0625 43.0963 25.2964 43.2546 21.4659 43.8879C19.9196 44.6992 19.193 44.9141 18.4185 44.1932C18.2856 44.0009 18.3987 43.5006 18.9302 43.3903C18.9244 43.0369 19.1818 42.8419 19.4645 42.7571C20.1966 42.5337 20.5755 43.1528 21.4801 42.921ZM19.114 38.4573C19.4023 38.4149 19.6963 38.3753 19.996 38.3414C19.0208 36.7414 20.1091 35.1922 21.6893 35.1583C20.5812 36.388 20.7083 37.4934 21.579 38.1775C22.1501 38.1266 22.7296 38.087 23.3147 38.0559C22.1529 36.6849 23.5126 35.1103 25.0703 34.9209C24.3183 35.7266 23.8406 37.0779 24.7622 37.9994C25.2908 37.9853 25.8194 37.9797 26.3424 37.9797C25.5537 36.4644 26.9361 35.2178 28.2421 35.1669C27.5269 35.8538 27.0039 37.1118 27.8435 38.0136C28.4032 38.0334 28.9516 38.0673 29.4803 38.1097C28.9884 37.0383 29.681 36.1507 31.0209 35.8934C30.4471 36.5295 30.1135 37.4284 30.6958 38.2313C31.4308 38.3189 32.3043 38.6525 32.9291 38.791C33.5453 39.1472 33.7291 39.2575 34.2238 39.6136C28.4682 38.7288 22.2091 38.9295 19.0972 39.5712C17.4434 40.5013 16.6661 40.7501 15.8406 39.9189C15.6993 39.6984 15.818 39.1246 16.389 38.9946C16.3777 38.2794 16.9912 38.2426 17.5933 38.2426C18.0824 38.6977 18.5656 38.6071 19.114 38.4573ZM17.1524 34.2369C17.5086 34.1916 18.1079 34.0107 18.481 33.9711C17.3842 31.9499 18.8513 29.8919 20.8556 30.0869C19.3658 31.4439 19.2697 32.8969 20.3496 33.6489C21.0563 33.5952 21.5454 33.5047 22.2719 33.4679C21.2004 31.7492 22.5602 29.5188 24.3808 29.7421C23.3546 30.675 22.9673 32.439 24.115 33.451C24.768 33.4369 25.4239 33.4313 26.0741 33.4341C25.3249 31.5541 26.7186 29.6206 28.7087 30.2142C27.6825 30.5054 26.8939 32.4729 27.937 33.468C28.6296 33.4935 29.308 33.5274 29.9667 33.5754C29.5285 32.1365 30.3568 30.6015 32.2028 31.198C31.349 31.7634 30.7526 32.8235 31.4734 33.7083C32.3865 33.8073 33.4692 34.0136 34.2438 34.1691C35.0099 34.5225 35.6884 35.0935 35.988 35.2603C28.8501 34.285 21.9947 34.3896 17.2741 35.3536C15.219 36.3798 14.1164 36.6087 13.0903 35.69C12.915 35.4497 13.0649 34.8137 13.7716 34.6723C13.7575 33.8807 14.5208 33.8412 15.2642 33.8412C15.872 34.3416 16.4711 34.4065 17.1524 34.2369Z" fill="black"/>
</svg>
